ISO-10303-21;
HEADER;
/* Generated by software containing ST-Developer
 * from STEP Tools, Inc. (www.steptools.com) 
 */

FILE_DESCRIPTION(
/* description */ (''),
/* implementation_level */ '2;1');

FILE_NAME(
/* name */ 'KAHA Locking Plate.step',
/* time_stamp */ '2026-07-24T23:35:28+12:00',
/* author */ (''),
/* organization */ (''),
/* preprocessor_version */ 'ST-DEVELOPER v20.1',
/* originating_system */ 'Autodesk Translation Framework v15.8.0.0',
/* authorisation */ '');

FILE_SCHEMA (('AUTOMOTIVE_DESIGN { 1 0 10303 214 3 1 1 }'));
ENDSEC;

DATA;
#10=MECHANICAL_DESIGN_GEOMETRIC_PRESENTATION_REPRESENTATION('',(#13),#1159);
#11=SHAPE_REPRESENTATION_RELATIONSHIP('SRR','None',#1166,#12);
#12=ADVANCED_BREP_SHAPE_REPRESENTATION('',(#14),#1158);
#13=STYLED_ITEM('',(#1175),#14);
#14=MANIFOLD_SOLID_BREP('Body1',#659);
#15=FACE_BOUND('',#98,.T.);
#16=FACE_BOUND('',#99,.T.);
#17=FACE_BOUND('',#101,.T.);
#18=FACE_BOUND('',#102,.T.);
#19=PLANE('',#682);
#20=PLANE('',#686);
#21=PLANE('',#687);
#22=PLANE('',#688);
#23=PLANE('',#692);
#24=PLANE('',#702);
#25=PLANE('',#715);
#26=PLANE('',#722);
#27=PLANE('',#729);
#28=PLANE('',#742);
#29=PLANE('',#749);
#30=PLANE('',#750);
#31=FACE_OUTER_BOUND('',#65,.T.);
#32=FACE_OUTER_BOUND('',#66,.T.);
#33=FACE_OUTER_BOUND('',#67,.T.);
#34=FACE_OUTER_BOUND('',#68,.T.);
#35=FACE_OUTER_BOUND('',#69,.T.);
#36=FACE_OUTER_BOUND('',#70,.T.);
#37=FACE_OUTER_BOUND('',#71,.T.);
#38=FACE_OUTER_BOUND('',#72,.T.);
#39=FACE_OUTER_BOUND('',#73,.T.);
#40=FACE_OUTER_BOUND('',#74,.T.);
#41=FACE_OUTER_BOUND('',#75,.T.);
#42=FACE_OUTER_BOUND('',#76,.T.);
#43=FACE_OUTER_BOUND('',#77,.T.);
#44=FACE_OUTER_BOUND('',#78,.T.);
#45=FACE_OUTER_BOUND('',#79,.T.);
#46=FACE_OUTER_BOUND('',#80,.T.);
#47=FACE_OUTER_BOUND('',#81,.T.);
#48=FACE_OUTER_BOUND('',#82,.T.);
#49=FACE_OUTER_BOUND('',#83,.T.);
#50=FACE_OUTER_BOUND('',#84,.T.);
#51=FACE_OUTER_BOUND('',#85,.T.);
#52=FACE_OUTER_BOUND('',#86,.T.);
#53=FACE_OUTER_BOUND('',#87,.T.);
#54=FACE_OUTER_BOUND('',#88,.T.);
#55=FACE_OUTER_BOUND('',#89,.T.);
#56=FACE_OUTER_BOUND('',#90,.T.);
#57=FACE_OUTER_BOUND('',#91,.T.);
#58=FACE_OUTER_BOUND('',#92,.T.);
#59=FACE_OUTER_BOUND('',#93,.T.);
#60=FACE_OUTER_BOUND('',#94,.T.);
#61=FACE_OUTER_BOUND('',#95,.T.);
#62=FACE_OUTER_BOUND('',#96,.T.);
#63=FACE_OUTER_BOUND('',#97,.T.);
#64=FACE_OUTER_BOUND('',#100,.T.);
#65=EDGE_LOOP('',(#411,#412,#413,#414));
#66=EDGE_LOOP('',(#415,#416,#417,#418));
#67=EDGE_LOOP('',(#419,#420,#421,#422));
#68=EDGE_LOOP('',(#423,#424,#425,#426));
#69=EDGE_LOOP('',(#427,#428,#429,#430));
#70=EDGE_LOOP('',(#431,#432,#433,#434));
#71=EDGE_LOOP('',(#435,#436,#437,#438));
#72=EDGE_LOOP('',(#439,#440,#441,#442));
#73=EDGE_LOOP('',(#443,#444,#445,#446));
#74=EDGE_LOOP('',(#447,#448,#449,#450));
#75=EDGE_LOOP('',(#451,#452,#453,#454));
#76=EDGE_LOOP('',(#455,#456,#457,#458));
#77=EDGE_LOOP('',(#459,#460,#461,#462));
#78=EDGE_LOOP('',(#463,#464,#465,#466));
#79=EDGE_LOOP('',(#467,#468,#469,#470));
#80=EDGE_LOOP('',(#471,#472,#473,#474));
#81=EDGE_LOOP('',(#475,#476,#477,#478));
#82=EDGE_LOOP('',(#479,#480,#481,#482));
#83=EDGE_LOOP('',(#483,#484,#485,#486));
#84=EDGE_LOOP('',(#487,#488,#489,#490));
#85=EDGE_LOOP('',(#491,#492,#493,#494));
#86=EDGE_LOOP('',(#495,#496,#497,#498));
#87=EDGE_LOOP('',(#499,#500,#501,#502));
#88=EDGE_LOOP('',(#503,#504,#505,#506));
#89=EDGE_LOOP('',(#507,#508,#509,#510));
#90=EDGE_LOOP('',(#511,#512,#513,#514));
#91=EDGE_LOOP('',(#515,#516,#517,#518));
#92=EDGE_LOOP('',(#519,#520,#521,#522));
#93=EDGE_LOOP('',(#523,#524,#525,#526));
#94=EDGE_LOOP('',(#527,#528,#529,#530));
#95=EDGE_LOOP('',(#531,#532,#533,#534));
#96=EDGE_LOOP('',(#535,#536,#537,#538));
#97=EDGE_LOOP('',(#539,#540,#541,#542,#543,#544,#545,#546,#547,#548,#549,
#550,#551,#552,#553,#554,#555,#556,#557,#558,#559,#560,#561,#562,#563,#564,
#565,#566,#567,#568));
#98=EDGE_LOOP('',(#569));
#99=EDGE_LOOP('',(#570));
#100=EDGE_LOOP('',(#571,#572,#573,#574,#575,#576,#577,#578,#579,#580,#581,
#582,#583,#584,#585,#586,#587,#588,#589,#590,#591,#592,#593,#594,#595,#596,
#597,#598,#599,#600));
#101=EDGE_LOOP('',(#601));
#102=EDGE_LOOP('',(#602));
#103=LINE('',#966,#155);
#104=LINE('',#972,#156);
#105=LINE('',#979,#157);
#106=LINE('',#982,#158);
#107=LINE('',#985,#159);
#108=LINE('',#987,#160);
#109=LINE('',#988,#161);
#110=LINE('',#994,#162);
#111=LINE('',#997,#163);
#112=LINE('',#999,#164);
#113=LINE('',#1000,#165);
#114=LINE('',#1003,#166);
#115=LINE('',#1005,#167);
#116=LINE('',#1006,#168);
#117=LINE('',#1009,#169);
#118=LINE('',#1011,#170);
#119=LINE('',#1012,#171);
#120=LINE('',#1018,#172);
#121=LINE('',#1021,#173);
#122=LINE('',#1023,#174);
#123=LINE('',#1024,#175);
#124=LINE('',#1030,#176);
#125=LINE('',#1036,#177);
#126=LINE('',#1042,#178);
#127=LINE('',#1045,#179);
#128=LINE('',#1047,#180);
#129=LINE('',#1048,#181);
#130=LINE('',#1054,#182);
#131=LINE('',#1060,#183);
#132=LINE('',#1066,#184);
#133=LINE('',#1072,#185);
#134=LINE('',#1075,#186);
#135=LINE('',#1077,#187);
#136=LINE('',#1078,#188);
#137=LINE('',#1084,#189);
#138=LINE('',#1090,#190);
#139=LINE('',#1093,#191);
#140=LINE('',#1095,#192);
#141=LINE('',#1096,#193);
#142=LINE('',#1102,#194);
#143=LINE('',#1108,#195);
#144=LINE('',#1111,#196);
#145=LINE('',#1113,#197);
#146=LINE('',#1114,#198);
#147=LINE('',#1120,#199);
#148=LINE('',#1126,#200);
#149=LINE('',#1132,#201);
#150=LINE('',#1138,#202);
#151=LINE('',#1141,#203);
#152=LINE('',#1143,#204);
#153=LINE('',#1144,#205);
#154=LINE('',#1150,#206);
#155=VECTOR('',#757,1.50000002235174);
#156=VECTOR('',#764,1.50000002235174);
#157=VECTOR('',#771,10.);
#158=VECTOR('',#774,10.);
#159=VECTOR('',#777,10.);
#160=VECTOR('',#778,10.);
#161=VECTOR('',#779,10.);
#162=VECTOR('',#786,10.);
#163=VECTOR('',#789,10.);
#164=VECTOR('',#790,10.);
#165=VECTOR('',#791,10.);
#166=VECTOR('',#794,10.);
#167=VECTOR('',#795,10.);
#168=VECTOR('',#796,10.);
#169=VECTOR('',#799,10.);
#170=VECTOR('',#800,10.);
#171=VECTOR('',#801,10.);
#172=VECTOR('',#808,10.);
#173=VECTOR('',#811,10.);
#174=VECTOR('',#812,10.);
#175=VECTOR('',#813,10.);
#176=VECTOR('',#820,10.);
#177=VECTOR('',#827,10.);
#178=VECTOR('',#834,10.);
#179=VECTOR('',#837,10.);
#180=VECTOR('',#838,10.);
#181=VECTOR('',#839,10.);
#182=VECTOR('',#846,10.);
#183=VECTOR('',#853,10.);
#184=VECTOR('',#860,10.);
#185=VECTOR('',#867,10.);
#186=VECTOR('',#870,10.);
#187=VECTOR('',#871,10.);
#188=VECTOR('',#872,10.);
#189=VECTOR('',#879,10.);
#190=VECTOR('',#886,10.);
#191=VECTOR('',#889,10.);
#192=VECTOR('',#890,10.);
#193=VECTOR('',#891,10.);
#194=VECTOR('',#898,10.);
#195=VECTOR('',#905,10.);
#196=VECTOR('',#908,10.);
#197=VECTOR('',#909,10.);
#198=VECTOR('',#910,10.);
#199=VECTOR('',#917,10.);
#200=VECTOR('',#924,10.);
#201=VECTOR('',#931,10.);
#202=VECTOR('',#938,10.);
#203=VECTOR('',#941,10.);
#204=VECTOR('',#942,10.);
#205=VECTOR('',#943,10.);
#206=VECTOR('',#950,10.);
#207=CIRCLE('',#674,1.50000002235174);
#208=CIRCLE('',#675,1.50000002235174);
#209=CIRCLE('',#677,1.50000002235174);
#210=CIRCLE('',#678,1.50000002235174);
#211=CIRCLE('',#680,1.01999999999999);
#212=CIRCLE('',#681,1.01999999999999);
#213=CIRCLE('',#684,1.48000000000001);
#214=CIRCLE('',#685,1.48000000000001);
#215=CIRCLE('',#690,1.48000000000001);
#216=CIRCLE('',#691,1.48000000000001);
#217=CIRCLE('',#694,1.02);
#218=CIRCLE('',#695,1.02);
#219=CIRCLE('',#697,4.64851045838681);
#220=CIRCLE('',#698,4.64851045838681);
#221=CIRCLE('',#700,3.02000000000003);
#222=CIRCLE('',#701,3.02000000000003);
#223=CIRCLE('',#704,29.9800000203309);
#224=CIRCLE('',#705,29.9800000203309);
#225=CIRCLE('',#707,5.02000000000003);
#226=CIRCLE('',#708,5.02000000000003);
#227=CIRCLE('',#710,739.734082288876);
#228=CIRCLE('',#711,739.734082288876);
#229=CIRCLE('',#713,10.0200000000002);
#230=CIRCLE('',#714,10.0200000000002);
#231=CIRCLE('',#717,3.98000005960464);
#232=CIRCLE('',#718,3.98000005960464);
#233=CIRCLE('',#720,5.96999999999998);
#234=CIRCLE('',#721,5.96999999999998);
#235=CIRCLE('',#724,5.96999999999999);
#236=CIRCLE('',#725,5.96999999999999);
#237=CIRCLE('',#727,3.98000005960464);
#238=CIRCLE('',#728,3.98000005960464);
#239=CIRCLE('',#731,10.0200000000007);
#240=CIRCLE('',#732,10.0200000000007);
#241=CIRCLE('',#734,739.73408236656);
#242=CIRCLE('',#735,739.73408236656);
#243=CIRCLE('',#737,5.01999999999983);
#244=CIRCLE('',#738,5.01999999999983);
#245=CIRCLE('',#740,29.9800000033072);
#246=CIRCLE('',#741,29.9800000033072);
#247=CIRCLE('',#744,3.01999999999997);
#248=CIRCLE('',#745,3.01999999999997);
#249=CIRCLE('',#747,4.64851045838685);
#250=CIRCLE('',#748,4.64851045838685);
#251=VERTEX_POINT('',#963);
#252=VERTEX_POINT('',#965);
#253=VERTEX_POINT('',#969);
#254=VERTEX_POINT('',#971);
#255=VERTEX_POINT('',#975);
#256=VERTEX_POINT('',#976);
#257=VERTEX_POINT('',#978);
#258=VERTEX_POINT('',#980);
#259=VERTEX_POINT('',#984);
#260=VERTEX_POINT('',#986);
#261=VERTEX_POINT('',#990);
#262=VERTEX_POINT('',#992);
#263=VERTEX_POINT('',#996);
#264=VERTEX_POINT('',#998);
#265=VERTEX_POINT('',#1002);
#266=VERTEX_POINT('',#1004);
#267=VERTEX_POINT('',#1008);
#268=VERTEX_POINT('',#1010);
#269=VERTEX_POINT('',#1014);
#270=VERTEX_POINT('',#1016);
#271=VERTEX_POINT('',#1020);
#272=VERTEX_POINT('',#1022);
#273=VERTEX_POINT('',#1026);
#274=VERTEX_POINT('',#1028);
#275=VERTEX_POINT('',#1032);
#276=VERTEX_POINT('',#1034);
#277=VERTEX_POINT('',#1038);
#278=VERTEX_POINT('',#1040);
#279=VERTEX_POINT('',#1044);
#280=VERTEX_POINT('',#1046);
#281=VERTEX_POINT('',#1050);
#282=VERTEX_POINT('',#1052);
#283=VERTEX_POINT('',#1056);
#284=VERTEX_POINT('',#1058);
#285=VERTEX_POINT('',#1062);
#286=VERTEX_POINT('',#1064);
#287=VERTEX_POINT('',#1068);
#288=VERTEX_POINT('',#1070);
#289=VERTEX_POINT('',#1074);
#290=VERTEX_POINT('',#1076);
#291=VERTEX_POINT('',#1080);
#292=VERTEX_POINT('',#1082);
#293=VERTEX_POINT('',#1086);
#294=VERTEX_POINT('',#1088);
#295=VERTEX_POINT('',#1092);
#296=VERTEX_POINT('',#1094);
#297=VERTEX_POINT('',#1098);
#298=VERTEX_POINT('',#1100);
#299=VERTEX_POINT('',#1104);
#300=VERTEX_POINT('',#1106);
#301=VERTEX_POINT('',#1110);
#302=VERTEX_POINT('',#1112);
#303=VERTEX_POINT('',#1116);
#304=VERTEX_POINT('',#1118);
#305=VERTEX_POINT('',#1122);
#306=VERTEX_POINT('',#1124);
#307=VERTEX_POINT('',#1128);
#308=VERTEX_POINT('',#1130);
#309=VERTEX_POINT('',#1134);
#310=VERTEX_POINT('',#1136);
#311=VERTEX_POINT('',#1140);
#312=VERTEX_POINT('',#1142);
#313=VERTEX_POINT('',#1146);
#314=VERTEX_POINT('',#1148);
#315=EDGE_CURVE('',#251,#251,#207,.T.);
#316=EDGE_CURVE('',#251,#252,#103,.T.);
#317=EDGE_CURVE('',#252,#252,#208,.T.);
#318=EDGE_CURVE('',#253,#253,#209,.T.);
#319=EDGE_CURVE('',#253,#254,#104,.T.);
#320=EDGE_CURVE('',#254,#254,#210,.T.);
#321=EDGE_CURVE('',#255,#256,#211,.T.);
#322=EDGE_CURVE('',#256,#257,#105,.T.);
#323=EDGE_CURVE('',#258,#257,#212,.T.);
#324=EDGE_CURVE('',#255,#258,#106,.T.);
#325=EDGE_CURVE('',#259,#255,#107,.T.);
#326=EDGE_CURVE('',#260,#258,#108,.T.);
#327=EDGE_CURVE('',#259,#260,#109,.T.);
#328=EDGE_CURVE('',#261,#259,#213,.T.);
#329=EDGE_CURVE('',#262,#260,#214,.T.);
#330=EDGE_CURVE('',#261,#262,#110,.T.);
#331=EDGE_CURVE('',#263,#261,#111,.T.);
#332=EDGE_CURVE('',#264,#262,#112,.T.);
#333=EDGE_CURVE('',#263,#264,#113,.T.);
#334=EDGE_CURVE('',#265,#263,#114,.T.);
#335=EDGE_CURVE('',#266,#264,#115,.T.);
#336=EDGE_CURVE('',#265,#266,#116,.T.);
#337=EDGE_CURVE('',#267,#265,#117,.T.);
#338=EDGE_CURVE('',#268,#266,#118,.T.);
#339=EDGE_CURVE('',#267,#268,#119,.T.);
#340=EDGE_CURVE('',#269,#267,#215,.T.);
#341=EDGE_CURVE('',#270,#268,#216,.T.);
#342=EDGE_CURVE('',#269,#270,#120,.T.);
#343=EDGE_CURVE('',#271,#269,#121,.T.);
#344=EDGE_CURVE('',#272,#270,#122,.T.);
#345=EDGE_CURVE('',#271,#272,#123,.T.);
#346=EDGE_CURVE('',#273,#271,#217,.T.);
#347=EDGE_CURVE('',#274,#272,#218,.T.);
#348=EDGE_CURVE('',#273,#274,#124,.T.);
#349=EDGE_CURVE('',#275,#273,#219,.T.);
#350=EDGE_CURVE('',#276,#274,#220,.T.);
#351=EDGE_CURVE('',#275,#276,#125,.T.);
#352=EDGE_CURVE('',#277,#275,#221,.T.);
#353=EDGE_CURVE('',#278,#276,#222,.T.);
#354=EDGE_CURVE('',#277,#278,#126,.T.);
#355=EDGE_CURVE('',#279,#277,#127,.T.);
#356=EDGE_CURVE('',#280,#278,#128,.T.);
#357=EDGE_CURVE('',#279,#280,#129,.T.);
#358=EDGE_CURVE('',#281,#279,#223,.T.);
#359=EDGE_CURVE('',#282,#280,#224,.T.);
#360=EDGE_CURVE('',#281,#282,#130,.T.);
#361=EDGE_CURVE('',#283,#281,#225,.T.);
#362=EDGE_CURVE('',#284,#282,#226,.T.);
#363=EDGE_CURVE('',#283,#284,#131,.T.);
#364=EDGE_CURVE('',#285,#283,#227,.T.);
#365=EDGE_CURVE('',#286,#284,#228,.T.);
#366=EDGE_CURVE('',#285,#286,#132,.T.);
#367=EDGE_CURVE('',#287,#285,#229,.T.);
#368=EDGE_CURVE('',#288,#286,#230,.T.);
#369=EDGE_CURVE('',#287,#288,#133,.T.);
#370=EDGE_CURVE('',#289,#287,#134,.T.);
#371=EDGE_CURVE('',#290,#288,#135,.T.);
#372=EDGE_CURVE('',#289,#290,#136,.T.);
#373=EDGE_CURVE('',#291,#289,#231,.T.);
#374=EDGE_CURVE('',#292,#290,#232,.T.);
#375=EDGE_CURVE('',#291,#292,#137,.T.);
#376=EDGE_CURVE('',#293,#291,#233,.T.);
#377=EDGE_CURVE('',#294,#292,#234,.T.);
#378=EDGE_CURVE('',#293,#294,#138,.T.);
#379=EDGE_CURVE('',#295,#293,#139,.T.);
#380=EDGE_CURVE('',#296,#294,#140,.T.);
#381=EDGE_CURVE('',#295,#296,#141,.T.);
#382=EDGE_CURVE('',#297,#295,#235,.T.);
#383=EDGE_CURVE('',#298,#296,#236,.T.);
#384=EDGE_CURVE('',#297,#298,#142,.T.);
#385=EDGE_CURVE('',#299,#297,#237,.T.);
#386=EDGE_CURVE('',#300,#298,#238,.T.);
#387=EDGE_CURVE('',#299,#300,#143,.T.);
#388=EDGE_CURVE('',#301,#299,#144,.T.);
#389=EDGE_CURVE('',#302,#300,#145,.T.);
#390=EDGE_CURVE('',#301,#302,#146,.T.);
#391=EDGE_CURVE('',#303,#301,#239,.T.);
#392=EDGE_CURVE('',#304,#302,#240,.T.);
#393=EDGE_CURVE('',#303,#304,#147,.T.);
#394=EDGE_CURVE('',#305,#303,#241,.T.);
#395=EDGE_CURVE('',#306,#304,#242,.T.);
#396=EDGE_CURVE('',#305,#306,#148,.T.);
#397=EDGE_CURVE('',#307,#305,#243,.T.);
#398=EDGE_CURVE('',#308,#306,#244,.T.);
#399=EDGE_CURVE('',#307,#308,#149,.T.);
#400=EDGE_CURVE('',#309,#307,#245,.T.);
#401=EDGE_CURVE('',#310,#308,#246,.T.);
#402=EDGE_CURVE('',#309,#310,#150,.T.);
#403=EDGE_CURVE('',#311,#309,#151,.T.);
#404=EDGE_CURVE('',#312,#310,#152,.T.);
#405=EDGE_CURVE('',#311,#312,#153,.T.);
#406=EDGE_CURVE('',#313,#311,#247,.T.);
#407=EDGE_CURVE('',#314,#312,#248,.T.);
#408=EDGE_CURVE('',#313,#314,#154,.T.);
#409=EDGE_CURVE('',#256,#313,#249,.T.);
#410=EDGE_CURVE('',#257,#314,#250,.T.);
#411=ORIENTED_EDGE('',*,*,#315,.F.);
#412=ORIENTED_EDGE('',*,*,#316,.T.);
#413=ORIENTED_EDGE('',*,*,#317,.T.);
#414=ORIENTED_EDGE('',*,*,#316,.F.);
#415=ORIENTED_EDGE('',*,*,#318,.F.);
#416=ORIENTED_EDGE('',*,*,#319,.T.);
#417=ORIENTED_EDGE('',*,*,#320,.T.);
#418=ORIENTED_EDGE('',*,*,#319,.F.);
#419=ORIENTED_EDGE('',*,*,#321,.T.);
#420=ORIENTED_EDGE('',*,*,#322,.T.);
#421=ORIENTED_EDGE('',*,*,#323,.F.);
#422=ORIENTED_EDGE('',*,*,#324,.F.);
#423=ORIENTED_EDGE('',*,*,#325,.T.);
#424=ORIENTED_EDGE('',*,*,#324,.T.);
#425=ORIENTED_EDGE('',*,*,#326,.F.);
#426=ORIENTED_EDGE('',*,*,#327,.F.);
#427=ORIENTED_EDGE('',*,*,#328,.T.);
#428=ORIENTED_EDGE('',*,*,#327,.T.);
#429=ORIENTED_EDGE('',*,*,#329,.F.);
#430=ORIENTED_EDGE('',*,*,#330,.F.);
#431=ORIENTED_EDGE('',*,*,#331,.T.);
#432=ORIENTED_EDGE('',*,*,#330,.T.);
#433=ORIENTED_EDGE('',*,*,#332,.F.);
#434=ORIENTED_EDGE('',*,*,#333,.F.);
#435=ORIENTED_EDGE('',*,*,#334,.T.);
#436=ORIENTED_EDGE('',*,*,#333,.T.);
#437=ORIENTED_EDGE('',*,*,#335,.F.);
#438=ORIENTED_EDGE('',*,*,#336,.F.);
#439=ORIENTED_EDGE('',*,*,#337,.T.);
#440=ORIENTED_EDGE('',*,*,#336,.T.);
#441=ORIENTED_EDGE('',*,*,#338,.F.);
#442=ORIENTED_EDGE('',*,*,#339,.F.);
#443=ORIENTED_EDGE('',*,*,#340,.T.);
#444=ORIENTED_EDGE('',*,*,#339,.T.);
#445=ORIENTED_EDGE('',*,*,#341,.F.);
#446=ORIENTED_EDGE('',*,*,#342,.F.);
#447=ORIENTED_EDGE('',*,*,#343,.T.);
#448=ORIENTED_EDGE('',*,*,#342,.T.);
#449=ORIENTED_EDGE('',*,*,#344,.F.);
#450=ORIENTED_EDGE('',*,*,#345,.F.);
#451=ORIENTED_EDGE('',*,*,#346,.T.);
#452=ORIENTED_EDGE('',*,*,#345,.T.);
#453=ORIENTED_EDGE('',*,*,#347,.F.);
#454=ORIENTED_EDGE('',*,*,#348,.F.);
#455=ORIENTED_EDGE('',*,*,#349,.T.);
#456=ORIENTED_EDGE('',*,*,#348,.T.);
#457=ORIENTED_EDGE('',*,*,#350,.F.);
#458=ORIENTED_EDGE('',*,*,#351,.F.);
#459=ORIENTED_EDGE('',*,*,#352,.T.);
#460=ORIENTED_EDGE('',*,*,#351,.T.);
#461=ORIENTED_EDGE('',*,*,#353,.F.);
#462=ORIENTED_EDGE('',*,*,#354,.F.);
#463=ORIENTED_EDGE('',*,*,#355,.T.);
#464=ORIENTED_EDGE('',*,*,#354,.T.);
#465=ORIENTED_EDGE('',*,*,#356,.F.);
#466=ORIENTED_EDGE('',*,*,#357,.F.);
#467=ORIENTED_EDGE('',*,*,#358,.T.);
#468=ORIENTED_EDGE('',*,*,#357,.T.);
#469=ORIENTED_EDGE('',*,*,#359,.F.);
#470=ORIENTED_EDGE('',*,*,#360,.F.);
#471=ORIENTED_EDGE('',*,*,#361,.T.);
#472=ORIENTED_EDGE('',*,*,#360,.T.);
#473=ORIENTED_EDGE('',*,*,#362,.F.);
#474=ORIENTED_EDGE('',*,*,#363,.F.);
#475=ORIENTED_EDGE('',*,*,#364,.T.);
#476=ORIENTED_EDGE('',*,*,#363,.T.);
#477=ORIENTED_EDGE('',*,*,#365,.F.);
#478=ORIENTED_EDGE('',*,*,#366,.F.);
#479=ORIENTED_EDGE('',*,*,#367,.T.);
#480=ORIENTED_EDGE('',*,*,#366,.T.);
#481=ORIENTED_EDGE('',*,*,#368,.F.);
#482=ORIENTED_EDGE('',*,*,#369,.F.);
#483=ORIENTED_EDGE('',*,*,#370,.T.);
#484=ORIENTED_EDGE('',*,*,#369,.T.);
#485=ORIENTED_EDGE('',*,*,#371,.F.);
#486=ORIENTED_EDGE('',*,*,#372,.F.);
#487=ORIENTED_EDGE('',*,*,#373,.T.);
#488=ORIENTED_EDGE('',*,*,#372,.T.);
#489=ORIENTED_EDGE('',*,*,#374,.F.);
#490=ORIENTED_EDGE('',*,*,#375,.F.);
#491=ORIENTED_EDGE('',*,*,#376,.T.);
#492=ORIENTED_EDGE('',*,*,#375,.T.);
#493=ORIENTED_EDGE('',*,*,#377,.F.);
#494=ORIENTED_EDGE('',*,*,#378,.F.);
#495=ORIENTED_EDGE('',*,*,#379,.T.);
#496=ORIENTED_EDGE('',*,*,#378,.T.);
#497=ORIENTED_EDGE('',*,*,#380,.F.);
#498=ORIENTED_EDGE('',*,*,#381,.F.);
#499=ORIENTED_EDGE('',*,*,#382,.T.);
#500=ORIENTED_EDGE('',*,*,#381,.T.);
#501=ORIENTED_EDGE('',*,*,#383,.F.);
#502=ORIENTED_EDGE('',*,*,#384,.F.);
#503=ORIENTED_EDGE('',*,*,#385,.T.);
#504=ORIENTED_EDGE('',*,*,#384,.T.);
#505=ORIENTED_EDGE('',*,*,#386,.F.);
#506=ORIENTED_EDGE('',*,*,#387,.F.);
#507=ORIENTED_EDGE('',*,*,#388,.T.);
#508=ORIENTED_EDGE('',*,*,#387,.T.);
#509=ORIENTED_EDGE('',*,*,#389,.F.);
#510=ORIENTED_EDGE('',*,*,#390,.F.);
#511=ORIENTED_EDGE('',*,*,#391,.T.);
#512=ORIENTED_EDGE('',*,*,#390,.T.);
#513=ORIENTED_EDGE('',*,*,#392,.F.);
#514=ORIENTED_EDGE('',*,*,#393,.F.);
#515=ORIENTED_EDGE('',*,*,#394,.T.);
#516=ORIENTED_EDGE('',*,*,#393,.T.);
#517=ORIENTED_EDGE('',*,*,#395,.F.);
#518=ORIENTED_EDGE('',*,*,#396,.F.);
#519=ORIENTED_EDGE('',*,*,#397,.T.);
#520=ORIENTED_EDGE('',*,*,#396,.T.);
#521=ORIENTED_EDGE('',*,*,#398,.F.);
#522=ORIENTED_EDGE('',*,*,#399,.F.);
#523=ORIENTED_EDGE('',*,*,#400,.T.);
#524=ORIENTED_EDGE('',*,*,#399,.T.);
#525=ORIENTED_EDGE('',*,*,#401,.F.);
#526=ORIENTED_EDGE('',*,*,#402,.F.);
#527=ORIENTED_EDGE('',*,*,#403,.T.);
#528=ORIENTED_EDGE('',*,*,#402,.T.);
#529=ORIENTED_EDGE('',*,*,#404,.F.);
#530=ORIENTED_EDGE('',*,*,#405,.F.);
#531=ORIENTED_EDGE('',*,*,#406,.T.);
#532=ORIENTED_EDGE('',*,*,#405,.T.);
#533=ORIENTED_EDGE('',*,*,#407,.F.);
#534=ORIENTED_EDGE('',*,*,#408,.F.);
#535=ORIENTED_EDGE('',*,*,#409,.T.);
#536=ORIENTED_EDGE('',*,*,#408,.T.);
#537=ORIENTED_EDGE('',*,*,#410,.F.);
#538=ORIENTED_EDGE('',*,*,#322,.F.);
#539=ORIENTED_EDGE('',*,*,#410,.T.);
#540=ORIENTED_EDGE('',*,*,#407,.T.);
#541=ORIENTED_EDGE('',*,*,#404,.T.);
#542=ORIENTED_EDGE('',*,*,#401,.T.);
#543=ORIENTED_EDGE('',*,*,#398,.T.);
#544=ORIENTED_EDGE('',*,*,#395,.T.);
#545=ORIENTED_EDGE('',*,*,#392,.T.);
#546=ORIENTED_EDGE('',*,*,#389,.T.);
#547=ORIENTED_EDGE('',*,*,#386,.T.);
#548=ORIENTED_EDGE('',*,*,#383,.T.);
#549=ORIENTED_EDGE('',*,*,#380,.T.);
#550=ORIENTED_EDGE('',*,*,#377,.T.);
#551=ORIENTED_EDGE('',*,*,#374,.T.);
#552=ORIENTED_EDGE('',*,*,#371,.T.);
#553=ORIENTED_EDGE('',*,*,#368,.T.);
#554=ORIENTED_EDGE('',*,*,#365,.T.);
#555=ORIENTED_EDGE('',*,*,#362,.T.);
#556=ORIENTED_EDGE('',*,*,#359,.T.);
#557=ORIENTED_EDGE('',*,*,#356,.T.);
#558=ORIENTED_EDGE('',*,*,#353,.T.);
#559=ORIENTED_EDGE('',*,*,#350,.T.);
#560=ORIENTED_EDGE('',*,*,#347,.T.);
#561=ORIENTED_EDGE('',*,*,#344,.T.);
#562=ORIENTED_EDGE('',*,*,#341,.T.);
#563=ORIENTED_EDGE('',*,*,#338,.T.);
#564=ORIENTED_EDGE('',*,*,#335,.T.);
#565=ORIENTED_EDGE('',*,*,#332,.T.);
#566=ORIENTED_EDGE('',*,*,#329,.T.);
#567=ORIENTED_EDGE('',*,*,#326,.T.);
#568=ORIENTED_EDGE('',*,*,#323,.T.);
#569=ORIENTED_EDGE('',*,*,#318,.T.);
#570=ORIENTED_EDGE('',*,*,#315,.T.);
#571=ORIENTED_EDGE('',*,*,#409,.F.);
#572=ORIENTED_EDGE('',*,*,#321,.F.);
#573=ORIENTED_EDGE('',*,*,#325,.F.);
#574=ORIENTED_EDGE('',*,*,#328,.F.);
#575=ORIENTED_EDGE('',*,*,#331,.F.);
#576=ORIENTED_EDGE('',*,*,#334,.F.);
#577=ORIENTED_EDGE('',*,*,#337,.F.);
#578=ORIENTED_EDGE('',*,*,#340,.F.);
#579=ORIENTED_EDGE('',*,*,#343,.F.);
#580=ORIENTED_EDGE('',*,*,#346,.F.);
#581=ORIENTED_EDGE('',*,*,#349,.F.);
#582=ORIENTED_EDGE('',*,*,#352,.F.);
#583=ORIENTED_EDGE('',*,*,#355,.F.);
#584=ORIENTED_EDGE('',*,*,#358,.F.);
#585=ORIENTED_EDGE('',*,*,#361,.F.);
#586=ORIENTED_EDGE('',*,*,#364,.F.);
#587=ORIENTED_EDGE('',*,*,#367,.F.);
#588=ORIENTED_EDGE('',*,*,#370,.F.);
#589=ORIENTED_EDGE('',*,*,#373,.F.);
#590=ORIENTED_EDGE('',*,*,#376,.F.);
#591=ORIENTED_EDGE('',*,*,#379,.F.);
#592=ORIENTED_EDGE('',*,*,#382,.F.);
#593=ORIENTED_EDGE('',*,*,#385,.F.);
#594=ORIENTED_EDGE('',*,*,#388,.F.);
#595=ORIENTED_EDGE('',*,*,#391,.F.);
#596=ORIENTED_EDGE('',*,*,#394,.F.);
#597=ORIENTED_EDGE('',*,*,#397,.F.);
#598=ORIENTED_EDGE('',*,*,#400,.F.);
#599=ORIENTED_EDGE('',*,*,#403,.F.);
#600=ORIENTED_EDGE('',*,*,#406,.F.);
#601=ORIENTED_EDGE('',*,*,#320,.F.);
#602=ORIENTED_EDGE('',*,*,#317,.F.);
#603=CYLINDRICAL_SURFACE('',#673,1.50000002235174);
#604=CYLINDRICAL_SURFACE('',#676,1.50000002235174);
#605=CYLINDRICAL_SURFACE('',#679,1.01999999999999);
#606=CYLINDRICAL_SURFACE('',#683,1.48000000000001);
#607=CYLINDRICAL_SURFACE('',#689,1.48000000000001);
#608=CYLINDRICAL_SURFACE('',#693,1.02);
#609=CYLINDRICAL_SURFACE('',#696,4.64851045838681);
#610=CYLINDRICAL_SURFACE('',#699,3.02000000000003);
#611=CYLINDRICAL_SURFACE('',#703,29.9800000203309);
#612=CYLINDRICAL_SURFACE('',#706,5.02000000000003);
#613=CYLINDRICAL_SURFACE('',#709,739.734082288876);
#614=CYLINDRICAL_SURFACE('',#712,10.0200000000002);
#615=CYLINDRICAL_SURFACE('',#716,3.98000005960464);
#616=CYLINDRICAL_SURFACE('',#719,5.96999999999998);
#617=CYLINDRICAL_SURFACE('',#723,5.96999999999999);
#618=CYLINDRICAL_SURFACE('',#726,3.98000005960464);
#619=CYLINDRICAL_SURFACE('',#730,10.0200000000007);
#620=CYLINDRICAL_SURFACE('',#733,739.73408236656);
#621=CYLINDRICAL_SURFACE('',#736,5.01999999999983);
#622=CYLINDRICAL_SURFACE('',#739,29.9800000033072);
#623=CYLINDRICAL_SURFACE('',#743,3.01999999999997);
#624=CYLINDRICAL_SURFACE('',#746,4.64851045838685);
#625=ADVANCED_FACE('',(#31),#603,.F.);
#626=ADVANCED_FACE('',(#32),#604,.F.);
#627=ADVANCED_FACE('',(#33),#605,.F.);
#628=ADVANCED_FACE('',(#34),#19,.T.);
#629=ADVANCED_FACE('',(#35),#606,.T.);
#630=ADVANCED_FACE('',(#36),#20,.T.);
#631=ADVANCED_FACE('',(#37),#21,.T.);
#632=ADVANCED_FACE('',(#38),#22,.T.);
#633=ADVANCED_FACE('',(#39),#607,.T.);
#634=ADVANCED_FACE('',(#40),#23,.T.);
#635=ADVANCED_FACE('',(#41),#608,.F.);
#636=ADVANCED_FACE('',(#42),#609,.F.);
#637=ADVANCED_FACE('',(#43),#610,.F.);
#638=ADVANCED_FACE('',(#44),#24,.T.);
#639=ADVANCED_FACE('',(#45),#611,.T.);
#640=ADVANCED_FACE('',(#46),#612,.F.);
#641=ADVANCED_FACE('',(#47),#613,.T.);
#642=ADVANCED_FACE('',(#48),#614,.F.);
#643=ADVANCED_FACE('',(#49),#25,.T.);
#644=ADVANCED_FACE('',(#50),#615,.T.);
#645=ADVANCED_FACE('',(#51),#616,.F.);
#646=ADVANCED_FACE('',(#52),#26,.T.);
#647=ADVANCED_FACE('',(#53),#617,.F.);
#648=ADVANCED_FACE('',(#54),#618,.T.);
#649=ADVANCED_FACE('',(#55),#27,.T.);
#650=ADVANCED_FACE('',(#56),#619,.F.);
#651=ADVANCED_FACE('',(#57),#620,.T.);
#652=ADVANCED_FACE('',(#58),#621,.F.);
#653=ADVANCED_FACE('',(#59),#622,.T.);
#654=ADVANCED_FACE('',(#60),#28,.T.);
#655=ADVANCED_FACE('',(#61),#623,.F.);
#656=ADVANCED_FACE('',(#62),#624,.F.);
#657=ADVANCED_FACE('',(#63,#15,#16),#29,.T.);
#658=ADVANCED_FACE('',(#64,#17,#18),#30,.F.);
#659=CLOSED_SHELL('',(#625,#626,#627,#628,#629,#630,#631,#632,#633,#634,
#635,#636,#637,#638,#639,#640,#641,#642,#643,#644,#645,#646,#647,#648,#649,
#650,#651,#652,#653,#654,#655,#656,#657,#658));
#660=DERIVED_UNIT_ELEMENT(#662,1.);
#661=DERIVED_UNIT_ELEMENT(#1161,-3.);
#662=(
MASS_UNIT()
NAMED_UNIT(*)
SI_UNIT(.KILO.,.GRAM.)
);
#663=DERIVED_UNIT((#660,#661));
#664=MEASURE_REPRESENTATION_ITEM('density measure',
POSITIVE_RATIO_MEASURE(7850.),#663);
#665=PROPERTY_DEFINITION_REPRESENTATION(#670,#667);
#666=PROPERTY_DEFINITION_REPRESENTATION(#671,#668);
#667=REPRESENTATION('material name',(#669),#1158);
#668=REPRESENTATION('density',(#664),#1158);
#669=DESCRIPTIVE_REPRESENTATION_ITEM('Steel','Steel');
#670=PROPERTY_DEFINITION('material property','material name',#1168);
#671=PROPERTY_DEFINITION('material property','density of part',#1168);
#672=AXIS2_PLACEMENT_3D('',#961,#751,#752);
#673=AXIS2_PLACEMENT_3D('',#962,#753,#754);
#674=AXIS2_PLACEMENT_3D('',#964,#755,#756);
#675=AXIS2_PLACEMENT_3D('',#967,#758,#759);
#676=AXIS2_PLACEMENT_3D('',#968,#760,#761);
#677=AXIS2_PLACEMENT_3D('',#970,#762,#763);
#678=AXIS2_PLACEMENT_3D('',#973,#765,#766);
#679=AXIS2_PLACEMENT_3D('',#974,#767,#768);
#680=AXIS2_PLACEMENT_3D('',#977,#769,#770);
#681=AXIS2_PLACEMENT_3D('',#981,#772,#773);
#682=AXIS2_PLACEMENT_3D('',#983,#775,#776);
#683=AXIS2_PLACEMENT_3D('',#989,#780,#781);
#684=AXIS2_PLACEMENT_3D('',#991,#782,#783);
#685=AXIS2_PLACEMENT_3D('',#993,#784,#785);
#686=AXIS2_PLACEMENT_3D('',#995,#787,#788);
#687=AXIS2_PLACEMENT_3D('',#1001,#792,#793);
#688=AXIS2_PLACEMENT_3D('',#1007,#797,#798);
#689=AXIS2_PLACEMENT_3D('',#1013,#802,#803);
#690=AXIS2_PLACEMENT_3D('',#1015,#804,#805);
#691=AXIS2_PLACEMENT_3D('',#1017,#806,#807);
#692=AXIS2_PLACEMENT_3D('',#1019,#809,#810);
#693=AXIS2_PLACEMENT_3D('',#1025,#814,#815);
#694=AXIS2_PLACEMENT_3D('',#1027,#816,#817);
#695=AXIS2_PLACEMENT_3D('',#1029,#818,#819);
#696=AXIS2_PLACEMENT_3D('',#1031,#821,#822);
#697=AXIS2_PLACEMENT_3D('',#1033,#823,#824);
#698=AXIS2_PLACEMENT_3D('',#1035,#825,#826);
#699=AXIS2_PLACEMENT_3D('',#1037,#828,#829);
#700=AXIS2_PLACEMENT_3D('',#1039,#830,#831);
#701=AXIS2_PLACEMENT_3D('',#1041,#832,#833);
#702=AXIS2_PLACEMENT_3D('',#1043,#835,#836);
#703=AXIS2_PLACEMENT_3D('',#1049,#840,#841);
#704=AXIS2_PLACEMENT_3D('',#1051,#842,#843);
#705=AXIS2_PLACEMENT_3D('',#1053,#844,#845);
#706=AXIS2_PLACEMENT_3D('',#1055,#847,#848);
#707=AXIS2_PLACEMENT_3D('',#1057,#849,#850);
#708=AXIS2_PLACEMENT_3D('',#1059,#851,#852);
#709=AXIS2_PLACEMENT_3D('',#1061,#854,#855);
#710=AXIS2_PLACEMENT_3D('',#1063,#856,#857);
#711=AXIS2_PLACEMENT_3D('',#1065,#858,#859);
#712=AXIS2_PLACEMENT_3D('',#1067,#861,#862);
#713=AXIS2_PLACEMENT_3D('',#1069,#863,#864);
#714=AXIS2_PLACEMENT_3D('',#1071,#865,#866);
#715=AXIS2_PLACEMENT_3D('',#1073,#868,#869);
#716=AXIS2_PLACEMENT_3D('',#1079,#873,#874);
#717=AXIS2_PLACEMENT_3D('',#1081,#875,#876);
#718=AXIS2_PLACEMENT_3D('',#1083,#877,#878);
#719=AXIS2_PLACEMENT_3D('',#1085,#880,#881);
#720=AXIS2_PLACEMENT_3D('',#1087,#882,#883);
#721=AXIS2_PLACEMENT_3D('',#1089,#884,#885);
#722=AXIS2_PLACEMENT_3D('',#1091,#887,#888);
#723=AXIS2_PLACEMENT_3D('',#1097,#892,#893);
#724=AXIS2_PLACEMENT_3D('',#1099,#894,#895);
#725=AXIS2_PLACEMENT_3D('',#1101,#896,#897);
#726=AXIS2_PLACEMENT_3D('',#1103,#899,#900);
#727=AXIS2_PLACEMENT_3D('',#1105,#901,#902);
#728=AXIS2_PLACEMENT_3D('',#1107,#903,#904);
#729=AXIS2_PLACEMENT_3D('',#1109,#906,#907);
#730=AXIS2_PLACEMENT_3D('',#1115,#911,#912);
#731=AXIS2_PLACEMENT_3D('',#1117,#913,#914);
#732=AXIS2_PLACEMENT_3D('',#1119,#915,#916);
#733=AXIS2_PLACEMENT_3D('',#1121,#918,#919);
#734=AXIS2_PLACEMENT_3D('',#1123,#920,#921);
#735=AXIS2_PLACEMENT_3D('',#1125,#922,#923);
#736=AXIS2_PLACEMENT_3D('',#1127,#925,#926);
#737=AXIS2_PLACEMENT_3D('',#1129,#927,#928);
#738=AXIS2_PLACEMENT_3D('',#1131,#929,#930);
#739=AXIS2_PLACEMENT_3D('',#1133,#932,#933);
#740=AXIS2_PLACEMENT_3D('',#1135,#934,#935);
#741=AXIS2_PLACEMENT_3D('',#1137,#936,#937);
#742=AXIS2_PLACEMENT_3D('',#1139,#939,#940);
#743=AXIS2_PLACEMENT_3D('',#1145,#944,#945);
#744=AXIS2_PLACEMENT_3D('',#1147,#946,#947);
#745=AXIS2_PLACEMENT_3D('',#1149,#948,#949);
#746=AXIS2_PLACEMENT_3D('',#1151,#951,#952);
#747=AXIS2_PLACEMENT_3D('',#1152,#953,#954);
#748=AXIS2_PLACEMENT_3D('',#1153,#955,#956);
#749=AXIS2_PLACEMENT_3D('',#1154,#957,#958);
#750=AXIS2_PLACEMENT_3D('',#1155,#959,#960);
#751=DIRECTION('axis',(0.,0.,1.));
#752=DIRECTION('refdir',(1.,0.,0.));
#753=DIRECTION('center_axis',(0.,0.,1.));
#754=DIRECTION('ref_axis',(-1.,0.,0.));
#755=DIRECTION('center_axis',(0.,0.,-1.));
#756=DIRECTION('ref_axis',(-1.,0.,0.));
#757=DIRECTION('',(0.,0.,-1.));
#758=DIRECTION('center_axis',(0.,0.,-1.));
#759=DIRECTION('ref_axis',(-1.,0.,0.));
#760=DIRECTION('center_axis',(0.,0.,1.));
#761=DIRECTION('ref_axis',(-1.,0.,0.));
#762=DIRECTION('center_axis',(0.,0.,-1.));
#763=DIRECTION('ref_axis',(-1.,0.,0.));
#764=DIRECTION('',(0.,0.,-1.));
#765=DIRECTION('center_axis',(0.,0.,-1.));
#766=DIRECTION('ref_axis',(-1.,0.,0.));
#767=DIRECTION('center_axis',(0.,0.,1.));
#768=DIRECTION('ref_axis',(0.642787609686538,-0.766044443118979,0.));
#769=DIRECTION('center_axis',(0.,0.,-1.));
#770=DIRECTION('ref_axis',(0.642787609686538,-0.766044443118979,0.));
#771=DIRECTION('',(0.,0.,1.));
#772=DIRECTION('center_axis',(0.,0.,-1.));
#773=DIRECTION('ref_axis',(0.642787609686538,-0.766044443118979,0.));
#774=DIRECTION('',(0.,0.,1.));
#775=DIRECTION('center_axis',(-0.642787609686544,0.766044443118974,0.));
#776=DIRECTION('ref_axis',(-0.766044443118974,-0.642787609686544,0.));
#777=DIRECTION('',(-0.766044443118974,-0.642787609686544,0.));
#778=DIRECTION('',(-0.766044443118974,-0.642787609686544,0.));
#779=DIRECTION('',(0.,0.,1.));
#780=DIRECTION('center_axis',(0.,0.,1.));
#781=DIRECTION('ref_axis',(0.642787615394012,-0.76604443832984,0.));
#782=DIRECTION('center_axis',(0.,0.,1.));
#783=DIRECTION('ref_axis',(0.642787615394012,-0.76604443832984,0.));
#784=DIRECTION('center_axis',(0.,0.,1.));
#785=DIRECTION('ref_axis',(0.642787615394012,-0.76604443832984,0.));
#786=DIRECTION('',(0.,0.,1.));
#787=DIRECTION('center_axis',(0.642787609686537,-0.76604444311898,0.));
#788=DIRECTION('ref_axis',(0.76604444311898,0.642787609686537,0.));
#789=DIRECTION('',(0.76604444311898,0.642787609686537,0.));
#790=DIRECTION('',(0.76604444311898,0.642787609686537,0.));
#791=DIRECTION('',(0.,0.,1.));
#792=DIRECTION('center_axis',(0.,-1.,0.));
#793=DIRECTION('ref_axis',(1.,0.,0.));
#794=DIRECTION('',(1.,0.,0.));
#795=DIRECTION('',(1.,0.,0.));
#796=DIRECTION('',(0.,0.,1.));
#797=DIRECTION('center_axis',(-0.642787609686537,-0.76604444311898,0.));
#798=DIRECTION('ref_axis',(0.76604444311898,-0.642787609686537,0.));
#799=DIRECTION('',(0.76604444311898,-0.642787609686537,0.));
#800=DIRECTION('',(0.76604444311898,-0.642787609686537,0.));
#801=DIRECTION('',(0.,0.,1.));
#802=DIRECTION('center_axis',(0.,0.,1.));
#803=DIRECTION('ref_axis',(0.642787594093422,0.766044456203156,0.));
#804=DIRECTION('center_axis',(0.,0.,1.));
#805=DIRECTION('ref_axis',(0.642787594093422,0.766044456203156,0.));
#806=DIRECTION('center_axis',(0.,0.,1.));
#807=DIRECTION('ref_axis',(0.642787594093422,0.766044456203156,0.));
#808=DIRECTION('',(0.,0.,1.));
#809=DIRECTION('center_axis',(0.642787609686542,0.766044443118975,0.));
#810=DIRECTION('ref_axis',(-0.766044443118975,0.642787609686542,0.));
#811=DIRECTION('',(-0.766044443118975,0.642787609686542,0.));
#812=DIRECTION('',(-0.766044443118975,0.642787609686542,0.));
#813=DIRECTION('',(0.,0.,1.));
#814=DIRECTION('center_axis',(0.,0.,1.));
#815=DIRECTION('ref_axis',(0.93123108588551,-0.364429231374892,0.));
#816=DIRECTION('center_axis',(0.,0.,-1.));
#817=DIRECTION('ref_axis',(0.93123108588551,-0.364429231374892,0.));
#818=DIRECTION('center_axis',(0.,0.,-1.));
#819=DIRECTION('ref_axis',(0.93123108588551,-0.364429231374892,0.));
#820=DIRECTION('',(0.,0.,1.));
#821=DIRECTION('center_axis',(0.,0.,1.));
#822=DIRECTION('ref_axis',(0.985139220590617,0.17175772487464,0.));
#823=DIRECTION('center_axis',(0.,0.,-1.));
#824=DIRECTION('ref_axis',(0.985139220590617,0.17175772487464,0.));
#825=DIRECTION('center_axis',(0.,0.,-1.));
#826=DIRECTION('ref_axis',(0.985139220590617,0.17175772487464,0.));
#827=DIRECTION('',(0.,0.,1.));
#828=DIRECTION('center_axis',(0.,0.,1.));
#829=DIRECTION('ref_axis',(0.680016865797339,0.733196469052575,0.));
#830=DIRECTION('center_axis',(0.,0.,-1.));
#831=DIRECTION('ref_axis',(0.680016865797339,0.733196469052575,0.));
#832=DIRECTION('center_axis',(0.,0.,-1.));
#833=DIRECTION('ref_axis',(0.680016865797339,0.733196469052575,0.));
#834=DIRECTION('',(0.,0.,1.));
#835=DIRECTION('center_axis',(-0.68001686579733,-0.733196469052584,0.));
#836=DIRECTION('ref_axis',(0.733196469052584,-0.68001686579733,0.));
#837=DIRECTION('',(0.733196469052584,-0.68001686579733,0.));
#838=DIRECTION('',(0.733196469052584,-0.68001686579733,0.));
#839=DIRECTION('',(0.,0.,1.));
#840=DIRECTION('center_axis',(0.,0.,1.));
#841=DIRECTION('ref_axis',(-0.496828536915734,-0.86784872236247,0.));
#842=DIRECTION('center_axis',(0.,0.,1.));
#843=DIRECTION('ref_axis',(-0.496828536915734,-0.86784872236247,0.));
#844=DIRECTION('center_axis',(0.,0.,1.));
#845=DIRECTION('ref_axis',(-0.496828536915734,-0.86784872236247,0.));
#846=DIRECTION('',(0.,0.,1.));
#847=DIRECTION('center_axis',(0.,0.,1.));
#848=DIRECTION('ref_axis',(0.585271527380125,0.810837369167292,0.));
#849=DIRECTION('center_axis',(0.,0.,-1.));
#850=DIRECTION('ref_axis',(0.585271527380125,0.810837369167292,0.));
#851=DIRECTION('center_axis',(0.,0.,-1.));
#852=DIRECTION('ref_axis',(0.585271527380125,0.810837369167292,0.));
#853=DIRECTION('',(0.,0.,1.));
#854=DIRECTION('center_axis',(0.,0.,1.));
#855=DIRECTION('ref_axis',(-0.5874048311076,-0.809293249935678,0.));
#856=DIRECTION('center_axis',(0.,0.,1.));
#857=DIRECTION('ref_axis',(-0.5874048311076,-0.809293249935678,0.));
#858=DIRECTION('center_axis',(0.,0.,1.));
#859=DIRECTION('ref_axis',(-0.5874048311076,-0.809293249935678,0.));
#860=DIRECTION('',(0.,0.,1.));
#861=DIRECTION('center_axis',(0.,0.,1.));
#862=DIRECTION('ref_axis',(0.447667256181035,-0.894200216810163,0.));
#863=DIRECTION('center_axis',(0.,0.,-1.));
#864=DIRECTION('ref_axis',(0.447667256181035,-0.894200216810163,0.));
#865=DIRECTION('center_axis',(0.,0.,-1.));
#866=DIRECTION('ref_axis',(0.447667256181035,-0.894200216810163,0.));
#867=DIRECTION('',(0.,0.,1.));
#868=DIRECTION('center_axis',(-0.447667264126793,0.894200212832245,0.));
#869=DIRECTION('ref_axis',(-0.894200212832245,-0.447667264126793,0.));
#870=DIRECTION('',(-0.894200212832245,-0.447667264126793,0.));
#871=DIRECTION('',(-0.894200212832245,-0.447667264126793,0.));
#872=DIRECTION('',(0.,0.,1.));
#873=DIRECTION('center_axis',(0.,0.,1.));
#874=DIRECTION('ref_axis',(0.710677850563873,0.703517585222938,0.));
#875=DIRECTION('center_axis',(0.,0.,1.));
#876=DIRECTION('ref_axis',(0.710677850563873,0.703517585222938,0.));
#877=DIRECTION('center_axis',(0.,0.,1.));
#878=DIRECTION('ref_axis',(0.710677850563873,0.703517585222938,0.));
#879=DIRECTION('',(0.,0.,1.));
#880=DIRECTION('center_axis',(0.,0.,1.));
#881=DIRECTION('ref_axis',(3.81232361889712E-15,-1.,0.));
#882=DIRECTION('center_axis',(0.,0.,-1.));
#883=DIRECTION('ref_axis',(3.81232361889712E-15,-1.,0.));
#884=DIRECTION('center_axis',(0.,0.,-1.));
#885=DIRECTION('ref_axis',(3.81232361889712E-15,-1.,0.));
#886=DIRECTION('',(0.,0.,1.));
#887=DIRECTION('center_axis',(2.27446031682768E-15,1.,0.));
#888=DIRECTION('ref_axis',(-1.,2.27446031682768E-15,0.));
#889=DIRECTION('',(-1.,2.27446031682768E-15,0.));
#890=DIRECTION('',(-1.,2.27446031682768E-15,0.));
#891=DIRECTION('',(0.,0.,1.));
#892=DIRECTION('center_axis',(0.,0.,1.));
#893=DIRECTION('ref_axis',(0.710677850563873,-0.703517585222938,0.));
#894=DIRECTION('center_axis',(0.,0.,-1.));
#895=DIRECTION('ref_axis',(0.710677850563873,-0.703517585222938,0.));
#896=DIRECTION('center_axis',(0.,0.,-1.));
#897=DIRECTION('ref_axis',(0.710677850563873,-0.703517585222938,0.));
#898=DIRECTION('',(0.,0.,1.));
#899=DIRECTION('center_axis',(0.,0.,1.));
#900=DIRECTION('ref_axis',(0.447667256141269,0.894200216830072,0.));
#901=DIRECTION('center_axis',(0.,0.,1.));
#902=DIRECTION('ref_axis',(0.447667256141269,0.894200216830072,0.));
#903=DIRECTION('center_axis',(0.,0.,1.));
#904=DIRECTION('ref_axis',(0.447667256141269,0.894200216830072,0.));
#905=DIRECTION('',(0.,0.,1.));
#906=DIRECTION('center_axis',(0.447667264126794,0.894200212832245,0.));
#907=DIRECTION('ref_axis',(-0.894200212832244,0.447667264126794,0.));
#908=DIRECTION('',(-0.894200212832244,0.447667264126794,0.));
#909=DIRECTION('',(-0.894200212832244,0.447667264126794,0.));
#910=DIRECTION('',(0.,0.,1.));
#911=DIRECTION('center_axis',(0.,0.,1.));
#912=DIRECTION('ref_axis',(-0.37951704120218,-0.925184746651793,0.));
#913=DIRECTION('center_axis',(0.,0.,-1.));
#914=DIRECTION('ref_axis',(-0.37951704120218,-0.925184746651793,0.));
#915=DIRECTION('center_axis',(0.,0.,-1.));
#916=DIRECTION('ref_axis',(-0.37951704120218,-0.925184746651793,0.));
#917=DIRECTION('',(0.,0.,1.));
#918=DIRECTION('center_axis',(0.,0.,1.));
#919=DIRECTION('ref_axis',(0.585271527387034,-0.810837369162305,0.));
#920=DIRECTION('center_axis',(0.,0.,1.));
#921=DIRECTION('ref_axis',(0.585271527387034,-0.810837369162305,0.));
#922=DIRECTION('center_axis',(0.,0.,1.));
#923=DIRECTION('ref_axis',(0.585271527387034,-0.810837369162305,0.));
#924=DIRECTION('',(0.,0.,1.));
#925=DIRECTION('center_axis',(0.,0.,1.));
#926=DIRECTION('ref_axis',(-0.712060367612001,0.702118247075421,0.));
#927=DIRECTION('center_axis',(0.,0.,-1.));
#928=DIRECTION('ref_axis',(-0.712060367612001,0.702118247075421,0.));
#929=DIRECTION('center_axis',(0.,0.,-1.));
#930=DIRECTION('ref_axis',(-0.712060367612001,0.702118247075421,0.));
#931=DIRECTION('',(0.,0.,1.));
#932=DIRECTION('center_axis',(0.,0.,1.));
#933=DIRECTION('ref_axis',(0.496188446300261,-0.868214849998624,0.));
#934=DIRECTION('center_axis',(0.,0.,1.));
#935=DIRECTION('ref_axis',(0.496188446300261,-0.868214849998624,0.));
#936=DIRECTION('center_axis',(0.,0.,1.));
#937=DIRECTION('ref_axis',(0.496188446300261,-0.868214849998624,0.));
#938=DIRECTION('',(0.,0.,1.));
#939=DIRECTION('center_axis',(0.680016865797329,-0.733196469052584,0.));
#940=DIRECTION('ref_axis',(0.733196469052584,0.680016865797329,0.));
#941=DIRECTION('',(0.733196469052584,0.680016865797329,0.));
#942=DIRECTION('',(0.733196469052584,0.680016865797329,0.));
#943=DIRECTION('',(0.,0.,1.));
#944=DIRECTION('center_axis',(0.,0.,1.));
#945=DIRECTION('ref_axis',(-0.985139220454447,0.17175772565566,0.));
#946=DIRECTION('center_axis',(0.,0.,-1.));
#947=DIRECTION('ref_axis',(-0.985139220454447,0.17175772565566,0.));
#948=DIRECTION('center_axis',(0.,0.,-1.));
#949=DIRECTION('ref_axis',(-0.985139220454447,0.17175772565566,0.));
#950=DIRECTION('',(0.,0.,1.));
#951=DIRECTION('center_axis',(0.,0.,1.));
#952=DIRECTION('ref_axis',(-0.931231085804096,-0.36442923158293,0.));
#953=DIRECTION('center_axis',(0.,0.,-1.));
#954=DIRECTION('ref_axis',(-0.931231085804096,-0.36442923158293,0.));
#955=DIRECTION('center_axis',(0.,0.,-1.));
#956=DIRECTION('ref_axis',(-0.931231085804096,-0.36442923158293,0.));
#957=DIRECTION('center_axis',(0.,0.,1.));
#958=DIRECTION('ref_axis',(1.,0.,0.));
#959=DIRECTION('center_axis',(0.,0.,1.));
#960=DIRECTION('ref_axis',(1.,0.,0.));
#961=CARTESIAN_POINT('',(0.,0.,0.));
#962=CARTESIAN_POINT('Origin',(10.0000001490116,35.0000005215406,0.));
#963=CARTESIAN_POINT('',(11.5000001713634,35.0000005215406,5.));
#964=CARTESIAN_POINT('Origin',(10.0000001490116,35.0000005215406,5.));
#965=CARTESIAN_POINT('',(11.5000001713634,35.0000005215406,0.));
#966=CARTESIAN_POINT('',(11.5000001713634,35.0000005215406,0.));
#967=CARTESIAN_POINT('Origin',(10.0000001490116,35.0000005215406,0.));
#968=CARTESIAN_POINT('Origin',(-10.0000001490116,35.0000005215406,0.));
#969=CARTESIAN_POINT('',(-8.50000012665987,35.0000005215406,5.));
#970=CARTESIAN_POINT('Origin',(-10.0000001490116,35.0000005215406,5.));
#971=CARTESIAN_POINT('',(-8.50000012665987,35.0000005215406,0.));
#972=CARTESIAN_POINT('',(-8.50000012665987,35.0000005215406,0.));
#973=CARTESIAN_POINT('Origin',(-10.0000001490116,35.0000005215406,0.));
#974=CARTESIAN_POINT('Origin',(10.8964257487432,24.5684808422907,0.));
#975=CARTESIAN_POINT('',(11.5520691106235,23.7871155103093,0.));
#976=CARTESIAN_POINT('',(9.94657004113755,24.1967630262946,0.));
#977=CARTESIAN_POINT('Origin',(10.8964257487432,24.5684808422907,0.));
#978=CARTESIAN_POINT('',(9.94657004113755,24.1967630262946,5.));
#979=CARTESIAN_POINT('',(9.94657004113755,24.1967630262946,0.));
#980=CARTESIAN_POINT('',(11.5520691106235,23.7871155103093,5.));
#981=CARTESIAN_POINT('Origin',(10.8964257487432,24.5684808422907,5.));
#982=CARTESIAN_POINT('',(11.5520691106235,23.7871155103093,0.));
#983=CARTESIAN_POINT('Origin',(12.51971424339,24.5990661843243,0.));
#984=CARTESIAN_POINT('',(12.51971424339,24.5990661843243,0.));
#985=CARTESIAN_POINT('',(12.51971424339,24.5990661843243,0.));
#986=CARTESIAN_POINT('',(12.51971424339,24.5990661843243,5.));
#987=CARTESIAN_POINT('',(12.51971424339,24.5990661843243,5.));
#988=CARTESIAN_POINT('',(12.51971424339,24.5990661843243,0.));
#989=CARTESIAN_POINT('Origin',(13.471039897279,23.4653204014202,0.));
#990=CARTESIAN_POINT('',(14.4223655680622,22.331574632692,0.));
#991=CARTESIAN_POINT('Origin',(13.471039897279,23.4653204014202,0.));
#992=CARTESIAN_POINT('',(14.4223655680622,22.331574632692,5.));
#993=CARTESIAN_POINT('Origin',(13.471039897279,23.4653204014202,5.));
#994=CARTESIAN_POINT('',(14.4223655680622,22.331574632692,0.));
#995=CARTESIAN_POINT('Origin',(9.22444364983686,17.9700002682209,0.));
#996=CARTESIAN_POINT('',(9.22444364983686,17.9700002682209,0.));
#997=CARTESIAN_POINT('',(9.22444364983686,17.9700002682209,0.));
#998=CARTESIAN_POINT('',(9.22444364983686,17.9700002682209,5.));
#999=CARTESIAN_POINT('',(9.22444364983686,17.9700002682209,5.));
#1000=CARTESIAN_POINT('',(9.22444364983686,17.9700002682209,0.));
#1001=CARTESIAN_POINT('Origin',(-9.22444364983686,17.9700002682209,0.));
#1002=CARTESIAN_POINT('',(-9.22444364983686,17.9700002682209,0.));
#1003=CARTESIAN_POINT('',(-9.22444364983686,17.9700002682209,0.));
#1004=CARTESIAN_POINT('',(-9.22444364983686,17.9700002682209,5.));
#1005=CARTESIAN_POINT('',(-9.22444364983686,17.9700002682209,5.));
#1006=CARTESIAN_POINT('',(-9.22444364983686,17.9700002682209,0.));
#1007=CARTESIAN_POINT('Origin',(-14.4223655680622,22.331574632692,0.));
#1008=CARTESIAN_POINT('',(-14.4223655680622,22.331574632692,0.));
#1009=CARTESIAN_POINT('',(-14.4223655680622,22.331574632692,0.));
#1010=CARTESIAN_POINT('',(-14.4223655680622,22.331574632692,5.));
#1011=CARTESIAN_POINT('',(-14.4223655680622,22.331574632692,5.));
#1012=CARTESIAN_POINT('',(-14.4223655680622,22.331574632692,0.));
#1013=CARTESIAN_POINT('Origin',(-13.4710398995424,23.4653204033194,0.));
#1014=CARTESIAN_POINT('',(-12.5197142602842,24.5990661985001,0.));
#1015=CARTESIAN_POINT('Origin',(-13.4710398995424,23.4653204033194,0.));
#1016=CARTESIAN_POINT('',(-12.5197142602842,24.5990661985001,5.));
#1017=CARTESIAN_POINT('Origin',(-13.4710398995424,23.4653204033194,5.));
#1018=CARTESIAN_POINT('',(-12.5197142602842,24.5990661985001,0.));
#1019=CARTESIAN_POINT('Origin',(-11.5520691106235,23.7871155103093,0.));
#1020=CARTESIAN_POINT('',(-11.5520691106235,23.7871155103093,0.));
#1021=CARTESIAN_POINT('',(-11.5520691106235,23.7871155103093,0.));
#1022=CARTESIAN_POINT('',(-11.5520691106235,23.7871155103093,5.));
#1023=CARTESIAN_POINT('',(-11.5520691106235,23.7871155103093,5.));
#1024=CARTESIAN_POINT('',(-11.5520691106235,23.7871155103093,0.));
#1025=CARTESIAN_POINT('Origin',(-10.8964257487432,24.5684808422907,0.));
#1026=CARTESIAN_POINT('',(-9.94657004113999,24.1967630262883,0.));
#1027=CARTESIAN_POINT('Origin',(-10.8964257487432,24.5684808422907,0.));
#1028=CARTESIAN_POINT('',(-9.94657004113999,24.1967630262883,5.));
#1029=CARTESIAN_POINT('Origin',(-10.8964257487432,24.5684808422907,5.));
#1030=CARTESIAN_POINT('',(-9.94657004113999,24.1967630262883,0.));
#1031=CARTESIAN_POINT('Origin',(-14.2754074826728,25.8908161206497,0.));
#1032=CARTESIAN_POINT('',(-9.69597751279028,26.6892337010382,0.));
#1033=CARTESIAN_POINT('Origin',(-14.2754074826728,25.8908161206497,0.));
#1034=CARTESIAN_POINT('',(-9.69597751279028,26.6892337010382,5.));
#1035=CARTESIAN_POINT('Origin',(-14.2754074826728,25.8908161206497,5.));
#1036=CARTESIAN_POINT('',(-9.69597751279028,26.6892337010382,0.));
#1037=CARTESIAN_POINT('Origin',(-12.6710979585586,26.1705253695346,0.));
#1038=CARTESIAN_POINT('',(-10.6174470238507,28.3847787060734,0.));
#1039=CARTESIAN_POINT('Origin',(-12.6710979585586,26.1705253695346,0.));
#1040=CARTESIAN_POINT('',(-10.6174470238507,28.3847787060734,5.));
#1041=CARTESIAN_POINT('Origin',(-12.6710979585586,26.1705253695346,5.));
#1042=CARTESIAN_POINT('',(-10.6174470238507,28.3847787060734,0.));
#1043=CARTESIAN_POINT('Origin',(-16.1990733069617,33.5615630623834,0.));
#1044=CARTESIAN_POINT('',(-16.1990733069617,33.5615630623834,0.));
#1045=CARTESIAN_POINT('',(-16.1990733069617,33.5615630623834,0.));
#1046=CARTESIAN_POINT('',(-16.1990733069617,33.5615630623834,5.));
#1047=CARTESIAN_POINT('',(-16.1990733069617,33.5615630623834,5.));
#1048=CARTESIAN_POINT('',(-16.1990733069617,33.5615630623834,0.));
#1049=CARTESIAN_POINT('Origin',(-1.32334367677375,59.5906442829834,0.));
#1050=CARTESIAN_POINT('',(-16.2182632236085,33.5725395689124,0.));
#1051=CARTESIAN_POINT('Origin',(-1.32334367677375,59.5906442829834,0.));
#1052=CARTESIAN_POINT('',(-16.2182632236085,33.5725395689124,5.));
#1053=CARTESIAN_POINT('Origin',(-1.32334367677375,59.5906442829834,5.));
#1054=CARTESIAN_POINT('',(-16.2182632236085,33.5725395689124,0.));
#1055=CARTESIAN_POINT('Origin',(-19.7928062690214,30.0479059685945,0.));
#1056=CARTESIAN_POINT('',(-16.8547432015732,34.1183095618143,0.));
#1057=CARTESIAN_POINT('Origin',(-19.7928062690214,30.0479059685945,0.));
#1058=CARTESIAN_POINT('',(-16.8547432015732,34.1183095618143,5.));
#1059=CARTESIAN_POINT('Origin',(-19.7928062690214,30.0479059685945,5.));
#1060=CARTESIAN_POINT('',(-16.8547432015732,34.1183095618143,0.));
#1061=CARTESIAN_POINT('Origin',(416.090552995097,633.922346728073,0.));
#1062=CARTESIAN_POINT('',(-18.4328206763356,35.2605471843225,0.));
#1063=CARTESIAN_POINT('Origin',(416.090552995097,633.922346728073,0.));
#1064=CARTESIAN_POINT('',(-18.4328206763356,35.2605471843225,5.));
#1065=CARTESIAN_POINT('Origin',(416.090552995097,633.922346728073,5.));
#1066=CARTESIAN_POINT('',(-18.4328206763356,35.2605471843225,0.));
#1067=CARTESIAN_POINT('Origin',(-22.2355814291651,44.5308983457803,0.));
#1068=CARTESIAN_POINT('',(-17.7499555222311,35.5710121733423,0.));
#1069=CARTESIAN_POINT('Origin',(-22.2355814291651,44.5308983457803,0.));
#1070=CARTESIAN_POINT('',(-17.7499555222311,35.5710121733423,5.));
#1071=CARTESIAN_POINT('Origin',(-22.2355814291651,44.5308983457803,5.));
#1072=CARTESIAN_POINT('',(-17.7499555222311,35.5710121733423,0.));
#1073=CARTESIAN_POINT('Origin',(-11.7817158553765,38.5589174377029,0.));
#1074=CARTESIAN_POINT('',(-11.7817158553765,38.5589174377029,0.));
#1075=CARTESIAN_POINT('',(-11.7817158553765,38.5589174377029,0.));
#1076=CARTESIAN_POINT('',(-11.7817158553765,38.5589174377029,5.));
#1077=CARTESIAN_POINT('',(-11.7817158553765,38.5589174377029,5.));
#1078=CARTESIAN_POINT('',(-11.7817158553765,38.5589174377029,0.));
#1079=CARTESIAN_POINT('Origin',(-10.0000001490116,35.0000005215407,0.));
#1080=CARTESIAN_POINT('',(-7.17150226140769,37.8000005526609,0.));
#1081=CARTESIAN_POINT('Origin',(-10.0000001490116,35.0000005215407,0.));
#1082=CARTESIAN_POINT('',(-7.17150226140769,37.8000005526609,5.));
#1083=CARTESIAN_POINT('Origin',(-10.0000001490116,35.0000005215407,5.));
#1084=CARTESIAN_POINT('',(-7.17150226140769,37.8000005526609,0.));
#1085=CARTESIAN_POINT('Origin',(-2.9287554935414,42.0000005364418,0.));
#1086=CARTESIAN_POINT('',(-2.92875549354138,36.0300005364418,0.));
#1087=CARTESIAN_POINT('Origin',(-2.9287554935414,42.0000005364418,0.));
#1088=CARTESIAN_POINT('',(-2.92875549354138,36.0300005364418,5.));
#1089=CARTESIAN_POINT('Origin',(-2.9287554935414,42.0000005364418,5.));
#1090=CARTESIAN_POINT('',(-2.92875549354138,36.0300005364418,0.));
#1091=CARTESIAN_POINT('Origin',(2.92875549354138,36.0300005364418,0.));
#1092=CARTESIAN_POINT('',(2.92875549354138,36.0300005364418,0.));
#1093=CARTESIAN_POINT('',(2.92875549354138,36.0300005364418,0.));
#1094=CARTESIAN_POINT('',(2.92875549354138,36.0300005364418,5.));
#1095=CARTESIAN_POINT('',(2.92875549354138,36.0300005364418,5.));
#1096=CARTESIAN_POINT('',(2.92875549354138,36.0300005364418,0.));
#1097=CARTESIAN_POINT('Origin',(2.92875549354139,42.0000005364418,0.));
#1098=CARTESIAN_POINT('',(7.1715022614077,37.8000005526609,0.));
#1099=CARTESIAN_POINT('Origin',(2.92875549354139,42.0000005364418,0.));
#1100=CARTESIAN_POINT('',(7.1715022614077,37.8000005526609,5.));
#1101=CARTESIAN_POINT('Origin',(2.92875549354139,42.0000005364418,5.));
#1102=CARTESIAN_POINT('',(7.1715022614077,37.8000005526609,0.));
#1103=CARTESIAN_POINT('Origin',(10.0000001490116,35.0000005215406,0.));
#1104=CARTESIAN_POINT('',(11.7817158551369,38.5589174378228,0.));
#1105=CARTESIAN_POINT('Origin',(10.0000001490116,35.0000005215406,0.));
#1106=CARTESIAN_POINT('',(11.7817158551369,38.5589174378228,5.));
#1107=CARTESIAN_POINT('Origin',(10.0000001490116,35.0000005215406,5.));
#1108=CARTESIAN_POINT('',(11.7817158551369,38.5589174378228,0.));
#1109=CARTESIAN_POINT('Origin',(17.7499555224694,35.571012173223,0.));
#1110=CARTESIAN_POINT('',(17.7499555224694,35.571012173223,0.));
#1111=CARTESIAN_POINT('',(17.7499555224694,35.571012173223,0.));
#1112=CARTESIAN_POINT('',(17.7499555224694,35.571012173223,5.));
#1113=CARTESIAN_POINT('',(17.7499555224694,35.571012173223,5.));
#1114=CARTESIAN_POINT('',(17.7499555224694,35.571012173223,0.));
#1115=CARTESIAN_POINT('Origin',(22.235581429165,44.5308983457811,0.));
#1116=CARTESIAN_POINT('',(18.4328206763189,35.2605471843294,0.));
#1117=CARTESIAN_POINT('Origin',(22.235581429165,44.5308983457811,0.));
#1118=CARTESIAN_POINT('',(18.4328206763189,35.2605471843294,5.));
#1119=CARTESIAN_POINT('Origin',(22.235581429165,44.5308983457811,5.));
#1120=CARTESIAN_POINT('',(18.4328206763189,35.2605471843294,0.));
#1121=CARTESIAN_POINT('Origin',(-416.090553045329,633.922346787622,0.));
#1122=CARTESIAN_POINT('',(16.8547432015934,34.118309561829,0.));
#1123=CARTESIAN_POINT('Origin',(-416.090553045329,633.922346787622,0.));
#1124=CARTESIAN_POINT('',(16.8547432015934,34.118309561829,5.));
#1125=CARTESIAN_POINT('Origin',(-416.090553045329,633.922346787622,5.));
#1126=CARTESIAN_POINT('',(16.8547432015934,34.118309561829,0.));
#1127=CARTESIAN_POINT('Origin',(19.7928062690214,30.0479059685948,0.));
#1128=CARTESIAN_POINT('',(16.2182632236096,33.5725395689134,0.));
#1129=CARTESIAN_POINT('Origin',(19.7928062690214,30.0479059685948,0.));
#1130=CARTESIAN_POINT('',(16.2182632236096,33.5725395689134,5.));
#1131=CARTESIAN_POINT('Origin',(19.7928062690214,30.0479059685948,5.));
#1132=CARTESIAN_POINT('',(16.2182632236096,33.5725395689134,0.));
#1133=CARTESIAN_POINT('Origin',(1.32334368524001,59.5906442682146,0.));
#1134=CARTESIAN_POINT('',(16.1990733069628,33.5615630623845,0.));
#1135=CARTESIAN_POINT('Origin',(1.32334368524001,59.5906442682146,0.));
#1136=CARTESIAN_POINT('',(16.1990733069628,33.5615630623845,5.));
#1137=CARTESIAN_POINT('Origin',(1.32334368524001,59.5906442682146,5.));
#1138=CARTESIAN_POINT('',(16.1990733069628,33.5615630623845,0.));
#1139=CARTESIAN_POINT('Origin',(10.6174470238507,28.3847787060734,0.));
#1140=CARTESIAN_POINT('',(10.6174470238507,28.3847787060734,0.));
#1141=CARTESIAN_POINT('',(10.6174470238507,28.3847787060734,0.));
#1142=CARTESIAN_POINT('',(10.6174470238507,28.3847787060734,5.));
#1143=CARTESIAN_POINT('',(10.6174470238507,28.3847787060734,5.));
#1144=CARTESIAN_POINT('',(10.6174470238507,28.3847787060734,0.));
#1145=CARTESIAN_POINT('Origin',(12.6710979585586,26.1705253695346,0.));
#1146=CARTESIAN_POINT('',(9.69597751278619,26.6892337010147,0.));
#1147=CARTESIAN_POINT('Origin',(12.6710979585586,26.1705253695346,0.));
#1148=CARTESIAN_POINT('',(9.69597751278619,26.6892337010147,5.));
#1149=CARTESIAN_POINT('Origin',(12.6710979585586,26.1705253695346,5.));
#1150=CARTESIAN_POINT('',(9.69597751278619,26.6892337010147,0.));
#1151=CARTESIAN_POINT('Origin',(14.2754074826728,25.8908161206497,0.));
#1152=CARTESIAN_POINT('Origin',(14.2754074826728,25.8908161206497,0.));
#1153=CARTESIAN_POINT('Origin',(14.2754074826728,25.8908161206497,5.));
#1154=CARTESIAN_POINT('Origin',(-2.35367281220533E-12,28.4750004246831,
5.));
#1155=CARTESIAN_POINT('Origin',(-2.35367281220533E-12,28.4750004246831,
0.));
#1156=UNCERTAINTY_MEASURE_WITH_UNIT(LENGTH_MEASURE(0.01),#1160,
'DISTANCE_ACCURACY_VALUE',
'Maximum model space distance between geometric entities at asserted c
onnectivities');
#1157=UNCERTAINTY_MEASURE_WITH_UNIT(LENGTH_MEASURE(0.01),#1160,
'DISTANCE_ACCURACY_VALUE',
'Maximum model space distance between geometric entities at asserted c
onnectivities');
#1158=(
GEOMETRIC_REPRESENTATION_CONTEXT(3)
GLOBAL_UNCERTAINTY_ASSIGNED_CONTEXT((#1156))
GLOBAL_UNIT_ASSIGNED_CONTEXT((#1160,#1162,#1163))
REPRESENTATION_CONTEXT('','3D')
);
#1159=(
GEOMETRIC_REPRESENTATION_CONTEXT(3)
GLOBAL_UNCERTAINTY_ASSIGNED_CONTEXT((#1157))
GLOBAL_UNIT_ASSIGNED_CONTEXT((#1160,#1162,#1163))
REPRESENTATION_CONTEXT('','3D')
);
#1160=(
LENGTH_UNIT()
NAMED_UNIT(*)
SI_UNIT(.MILLI.,.METRE.)
);
#1161=(
LENGTH_UNIT()
NAMED_UNIT(*)
SI_UNIT($,.METRE.)
);
#1162=(
NAMED_UNIT(*)
PLANE_ANGLE_UNIT()
SI_UNIT($,.RADIAN.)
);
#1163=(
NAMED_UNIT(*)
SI_UNIT($,.STERADIAN.)
SOLID_ANGLE_UNIT()
);
#1164=SHAPE_DEFINITION_REPRESENTATION(#1165,#1166);
#1165=PRODUCT_DEFINITION_SHAPE('',$,#1168);
#1166=SHAPE_REPRESENTATION('',(#672),#1158);
#1167=PRODUCT_DEFINITION_CONTEXT('part definition',#1172,'design');
#1168=PRODUCT_DEFINITION('2026-07-24-23-33-23-276','(Unsaved)',#1169,#1167);
#1169=PRODUCT_DEFINITION_FORMATION('',$,#1174);
#1170=PRODUCT_RELATED_PRODUCT_CATEGORY('(Unsaved)','(Unsaved)',(#1174));
#1171=APPLICATION_PROTOCOL_DEFINITION('international standard',
'automotive_design',2009,#1172);
#1172=APPLICATION_CONTEXT(
'Core Data for Automotive Mechanical Design Process');
#1173=PRODUCT_CONTEXT('part definition',#1172,'mechanical');
#1174=PRODUCT('2026-07-24-23-33-23-276','(Unsaved)',$,(#1173));
#1175=PRESENTATION_STYLE_ASSIGNMENT((#1176));
#1176=SURFACE_STYLE_USAGE(.BOTH.,#1177);
#1177=SURFACE_SIDE_STYLE('',(#1178));
#1178=SURFACE_STYLE_FILL_AREA(#1179);
#1179=FILL_AREA_STYLE('Steel - Satin',(#1180));
#1180=FILL_AREA_STYLE_COLOUR('Steel - Satin',#1181);
#1181=COLOUR_RGB('Steel - Satin',0.627450980392157,0.627450980392157,0.627450980392157);
ENDSEC;
END-ISO-10303-21;
