0
SECTION
2
HEADER
9
$INSUNITS
70
4
9
$ACADVER
1
AC1014
9
$HANDSEED
5
FFFF
0
ENDSEC
0
SECTION
2
TABLES
0
TABLE
2
VPORT
5
8
100
AcDbSymbolTable
0
ENDTAB
0
TABLE
2
LTYPE
5
5
100
AcDbSymbolTable
0
LTYPE
5
14
100
AcDbSymbolTableRecord
100
AcDbLinetypeTableRecord
2
BYBLOCK
70
0
0
LTYPE
5
15
100
AcDbSymbolTableRecord
100
AcDbLinetypeTableRecord
2
BYLAYER
70
0
0
LTYPE
5
16
100
AcDbSymbolTableRecord
100
AcDbLinetypeTableRecord
2
DASHED
70
0
3
Dashed __ __ __ __ __ __ __ __ __ __ __ __ __ _
72
65
73
2
40
0.75
49
0.5
74
0
49
-0.25
74
0
0
ENDTAB
0
TABLE
2
LAYER
5
2
100
AcDbSymbolTable
70
3
0
LAYER
5
50
100
AcDbSymbolTableRecord
100
AcDbLayerTableRecord
2
1
70
0
62
7
6
DASHED
0
LAYER
5
51
100
AcDbSymbolTableRecord
100
AcDbLayerTableRecord
2
0
70
0
62
7
6
CONTINUOUS
0
ENDTAB
0
TABLE
2
STYLE
5
3
100
AcDbSymbolTable
70
1
0
STYLE
5
11
100
AcDbSymbolTableRecord
100
AcDbTextStyleTableRecord
2
STANDARD
70
0
0
ENDTAB
0
TABLE
2
VIEW
5
6
100
AcDbSymbolTable
70
0
0
ENDTAB
0
TABLE
2
UCS
5
7
100
AcDbSymbolTable
70
0
0
ENDTAB
0
TABLE
2
APPID
5
9
100
AcDbSymbolTable
70
2
0
APPID
5
12
100
AcDbSymbolTableRecord
100
AcDbRegAppTableRecord
2
ACAD
70
0
0
ENDTAB
0
TABLE
2
DIMSTYLE
5
A
100
AcDbSymbolTable
70
1
0
ENDTAB
0
TABLE
2
BLOCK_RECORD
5
1
100
AcDbSymbolTable
70
1
0
BLOCK_RECORD
5
1F
100
AcDbSymbolTableRecord
100
AcDbBlockTableRecord
2
*MODEL_SPACE
0
BLOCK_RECORD
5
1B
100
AcDbSymbolTableRecord
100
AcDbBlockTableRecord
2
*PAPER_SPACE
0
ENDTAB
0
ENDSEC
0
SECTION
2
BLOCKS
0
BLOCK
5
20
100
AcDbEntity
100
AcDbBlockBegin
2
*MODEL_SPACE
0
ENDBLK
5
21
100
AcDbEntity
100
AcDbBlockEnd
0
BLOCK
5
1C
100
AcDbEntity
100
AcDbBlockBegin
2
*PAPER_SPACE
0
ENDBLK
5
1D
100
AcDbEntity
100
AcDbBlockEnd
0
ENDSEC
0
SECTION
2
ENTITIES
0
LWPOLYLINE
5
100
100
AcDbEntity
8
0
100
AcDbPolyline
90
30
70
1
43
0.0
10
12.519714243390025
20
24.599066184324244
10
11.552069110623473
20
23.787115510309334
42
-0.51297930250628387
10
9.9465700411375479
20
24.196763026294548
42
-0.13726076703516124
10
9.6959775127861931
20
26.689233701014729
42
-0.16404754334972427
10
10.617447023850662
20
28.384778706073412
10
16.199073306962816
20
33.561563062384472
42
0.00018435113907183274
10
16.21826322360932
20
33.572539568913292
42
-0.04182773581031949
10
16.854743201593507
20
34.118309561829037
42
0.00065837370677053508
10
18.432820676318972
20
35.260547184329312
42
-0.018722350649340389
10
17.749955522469435
20
35.571012173222982
10
11.781715855136914
20
38.558917437822814
42
0.32436121852436772
10
7.1715022614077029
20
37.800000552660855
42
-0.20022855467882883
10
2.9287554935413813
20
36.030000536441797
10
-2.92875549354138
20
36.030000536441804
42
-0.20022855467882883
10
-7.1715022614076984
20
37.800000552660855
42
0.32436121854296668
10
-11.781715855376477
20
38.558917437702881
10
-17.74995552223108
20
35.571012173342311
42
-0.018722350656440644
10
-18.432820676335524
20
35.26054718432249
42
0.00065837370677053508
10
-16.854743201573214
20
34.118309561814343
42
-0.041827735809131364
10
-16.218263223608446
20
33.572539568912397
42
0.00018435113914711185
10
-16.199073306961665
20
33.561563062383406
10
-10.617447023850664
20
28.384778706073412
42
-0.16404754334770263
10
-9.6959775127902788
20
26.689233701038159
42
-0.13726076703683182
10
-9.9465700411399904
20
24.196763026288309
42
-0.5129793025042072
10
-11.552069110623473
20
23.787115510309327
10
-12.519714260284152
20
24.5990661985001
42
0.99999998709521587
10
-14.422365568062181
20
22.331574632692053
10
-9.2244436498368572
20
17.970000268220904
10
9.2244436498368572
20
17.970000268220904
10
14.422365568062181
20
22.331574632692053
42
0.9999999925494194
0
CIRCLE
5
101
100
AcDbEntity
8
0
100
AcDbCircle
10
10.000000149011612
20
35.000000521540642
30
0
40
1.5000000223517418
210
0
220
0
230
-1
0
CIRCLE
5
102
100
AcDbEntity
8
0
100
AcDbCircle
10
-10.000000149011612
20
35.000000521540642
30
0
40
1.5000000223517418
210
0
220
0
230
-1
0
ENDSEC
0
SECTION
2
OBJECTS
0
DICTIONARY
5
C
100
AcDbDictionary
3
ACAD_GROUP
350
D
3
ACAD_MLINESTYLE
350
17
0
DICTIONARY
5
D
100
AcDbDictionary
0
DICTIONARY
5
1A
330
C
100
AcDbDictionary
0
DICTIONARY
5
17
100
AcDbDictionary
0
ENDSEC
0
EOF
