0
SECTION
2
HEADER
9
$INSUNITS
70
4
9
$ACADVER
1
AC1014
9
$HANDSEED
5
FFFF
0
ENDSEC
0
SECTION
2
TABLES
0
TABLE
2
VPORT
5
8
100
AcDbSymbolTable
0
ENDTAB
0
TABLE
2
LTYPE
5
5
100
AcDbSymbolTable
0
LTYPE
5
14
100
AcDbSymbolTableRecord
100
AcDbLinetypeTableRecord
2
BYBLOCK
70
0
0
LTYPE
5
15
100
AcDbSymbolTableRecord
100
AcDbLinetypeTableRecord
2
BYLAYER
70
0
0
LTYPE
5
16
100
AcDbSymbolTableRecord
100
AcDbLinetypeTableRecord
2
DASHED
70
0
3
Dashed __ __ __ __ __ __ __ __ __ __ __ __ __ _
72
65
73
2
40
0.75
49
0.5
74
0
49
-0.25
74
0
0
ENDTAB
0
TABLE
2
LAYER
5
2
100
AcDbSymbolTable
70
3
0
LAYER
5
50
100
AcDbSymbolTableRecord
100
AcDbLayerTableRecord
2
1
70
0
62
7
6
DASHED
0
LAYER
5
51
100
AcDbSymbolTableRecord
100
AcDbLayerTableRecord
2
0
70
0
62
7
6
CONTINUOUS
0
ENDTAB
0
TABLE
2
STYLE
5
3
100
AcDbSymbolTable
70
1
0
STYLE
5
11
100
AcDbSymbolTableRecord
100
AcDbTextStyleTableRecord
2
STANDARD
70
0
0
ENDTAB
0
TABLE
2
VIEW
5
6
100
AcDbSymbolTable
70
0
0
ENDTAB
0
TABLE
2
UCS
5
7
100
AcDbSymbolTable
70
0
0
ENDTAB
0
TABLE
2
APPID
5
9
100
AcDbSymbolTable
70
2
0
APPID
5
12
100
AcDbSymbolTableRecord
100
AcDbRegAppTableRecord
2
ACAD
70
0
0
ENDTAB
0
TABLE
2
DIMSTYLE
5
A
100
AcDbSymbolTable
70
1
0
ENDTAB
0
TABLE
2
BLOCK_RECORD
5
1
100
AcDbSymbolTable
70
1
0
BLOCK_RECORD
5
1F
100
AcDbSymbolTableRecord
100
AcDbBlockTableRecord
2
*MODEL_SPACE
0
BLOCK_RECORD
5
1B
100
AcDbSymbolTableRecord
100
AcDbBlockTableRecord
2
*PAPER_SPACE
0
ENDTAB
0
ENDSEC
0
SECTION
2
BLOCKS
0
BLOCK
5
20
100
AcDbEntity
100
AcDbBlockBegin
2
*MODEL_SPACE
0
ENDBLK
5
21
100
AcDbEntity
100
AcDbBlockEnd
0
BLOCK
5
1C
100
AcDbEntity
100
AcDbBlockBegin
2
*PAPER_SPACE
0
ENDBLK
5
1D
100
AcDbEntity
100
AcDbBlockEnd
0
ENDSEC
0
SECTION
2
ENTITIES
0
LWPOLYLINE
5
100
100
AcDbEntity
8
0
100
AcDbPolyline
90
33
70
1
43
0.0
10
17.808159896494136
20
-19.816765128262908
42
0.16404782620266276
10
15.990477086644512
20
-19.207782997144975
42
0.13726058527519944
10
13.589764481589071
20
-19.884457506639592
42
0.51297930174447948
10
13.467576187489369
20
-21.504303069814785
10
14.435221303133485
20
-22.316253729462261
42
-1.0000000074505806
10
12.506858491196294
20
-24.614387073186617
10
11.539213358429745
20
-23.802436399171714
42
0.51297930250773904
10
9.9651946628536283
20
-24.204051610926214
42
0.13726076703428303
10
9.7156802971952807
20
-26.685798546501619
42
0.16404754334972457
10
10.631047361166612
20
-28.370114776692365
10
16.210990634052244
20
-33.545338193492128
42
-0.00018809191428439801
10
16.230582064234529
20
-33.556546547911601
42
0.041964911860945184
10
16.866448632116906
20
-34.102092814427976
42
-0.0052287443040075826
10
29.315956302093724
20
-43.28782035939696
10
60.888884783005331
20
-69.780653002916296
42
-0.17532661718409023
10
62.595578375262647
20
-72.723528467437959
42
-0.078125033843441924
10
62.660653733464677
20
-75.617717087182314
42
0.44485114689211452
10
67.466253325045329
20
-81.280750895902514
42
-0.30957090122475273
10
71.1173889245879
20
-83.94520442880679
10
74.151928160584475
20
-92.52517948811915
42
0.77459666924148673
10
79.939296373518687
20
-92.018850377837111
10
81.325251566526674
20
-83.716692823158411
42
-0.27284213266315782
10
84.589818791223422
20
-79.826133104860816
10
92.52517932420605
20
-77.019579155385372
42
0.77459666924148607
10
92.018850213924026
20
-71.232210942451104
10
83.042282046472295
20
-69.733670209499195
42
-0.30957090122474357
10
79.784294506452085
20
-66.600681064237804
42
0.44485114689211691
10
73.372811294379176
20
-62.851464829527274
42
-0.078125033843442715
10
70.511291685612392
20
-63.289948691882842
42
-0.17532661718409068
10
67.316760879870714
20
-62.120208571726465
10
35.74383239896882
20
-35.627375928214995
42
-0.0052287443040102471
10
24.535822375876037
20
-24.962089102358362
42
0.03065228135571247
10
24.07125379716615
20
-24.56297038727196
0
CIRCLE
5
101
100
AcDbEntity
8
0
100
AcDbCircle
10
-83.555311160762244
20
-74.888507797960159
30
0
40
1.5000000000000036
210
0
220
0
230
-1
0
CIRCLE
5
102
100
AcDbEntity
8
0
100
AcDbCircle
10
-20.783655381392254
20
-29.601333357080911
30
0
40
1.4999999999999993
210
0
220
0
230
-1
0
CIRCLE
5
103
100
AcDbEntity
8
0
100
AcDbCircle
10
-74.888507634047059
20
-67.616196155207405
30
0
40
1.4999999999999947
210
0
220
0
230
-1
0
CIRCLE
5
104
100
AcDbEntity
8
0
100
AcDbCircle
10
-75.585753576028281
20
-75.585753739941381
30
0
40
3.4999999999999964
210
0
220
0
230
-1
0
CIRCLE
5
105
100
AcDbEntity
8
0
100
AcDbCircle
10
-76.282999518009518
20
-83.555311324675358
30
0
40
1.4999999999999947
210
0
220
0
230
-1
0
CIRCLE
5
106
100
AcDbEntity
8
0
100
AcDbCircle
10
-67.616195991294319
20
-76.282999681922604
30
0
40
1.4999999999999947
210
0
220
0
230
-1
0
ENDSEC
0
SECTION
2
OBJECTS
0
DICTIONARY
5
C
100
AcDbDictionary
3
ACAD_GROUP
350
D
3
ACAD_MLINESTYLE
350
17
0
DICTIONARY
5
D
100
AcDbDictionary
0
DICTIONARY
5
1A
330
C
100
AcDbDictionary
0
DICTIONARY
5
17
100
AcDbDictionary
0
ENDSEC
0
EOF
