ISO-10303-21;
HEADER;
/* Generated by software containing ST-Developer
 * from STEP Tools, Inc. (www.steptools.com) 
 */

FILE_DESCRIPTION(
/* description */ (''),
/* implementation_level */ '2;1');

FILE_NAME(
/* name */ 'Kaha Arm.step',
/* time_stamp */ '2026-07-24T23:33:19+12:00',
/* author */ (''),
/* organization */ (''),
/* preprocessor_version */ 'ST-DEVELOPER v20.1',
/* originating_system */ 'Autodesk Translation Framework v15.8.0.0',
/* authorisation */ '');

FILE_SCHEMA (('AUTOMOTIVE_DESIGN { 1 0 10303 214 3 1 1 }'));
ENDSEC;

DATA;
#10=MECHANICAL_DESIGN_GEOMETRIC_PRESENTATION_REPRESENTATION('',(#13),#1420);
#11=SHAPE_REPRESENTATION_RELATIONSHIP('SRR','None',#1427,#12);
#12=ADVANCED_BREP_SHAPE_REPRESENTATION('',(#14),#1419);
#13=STYLED_ITEM('',(#1436),#14);
#14=MANIFOLD_SOLID_BREP('Body1',#808);
#15=FACE_BOUND('',#120,.T.);
#16=FACE_BOUND('',#121,.T.);
#17=FACE_BOUND('',#122,.T.);
#18=FACE_BOUND('',#123,.T.);
#19=FACE_BOUND('',#124,.T.);
#20=FACE_BOUND('',#125,.T.);
#21=FACE_BOUND('',#127,.T.);
#22=FACE_BOUND('',#128,.T.);
#23=FACE_BOUND('',#129,.T.);
#24=FACE_BOUND('',#130,.T.);
#25=FACE_BOUND('',#131,.T.);
#26=FACE_BOUND('',#132,.T.);
#27=PLANE('',#849);
#28=PLANE('',#856);
#29=PLANE('',#869);
#30=PLANE('',#873);
#31=PLANE('',#877);
#32=PLANE('',#881);
#33=PLANE('',#894);
#34=PLANE('',#904);
#35=PLANE('',#914);
#36=PLANE('',#918);
#37=PLANE('',#919);
#38=PLANE('',#920);
#39=FACE_OUTER_BOUND('',#80,.T.);
#40=FACE_OUTER_BOUND('',#81,.T.);
#41=FACE_OUTER_BOUND('',#82,.T.);
#42=FACE_OUTER_BOUND('',#83,.T.);
#43=FACE_OUTER_BOUND('',#84,.T.);
#44=FACE_OUTER_BOUND('',#85,.T.);
#45=FACE_OUTER_BOUND('',#86,.T.);
#46=FACE_OUTER_BOUND('',#87,.T.);
#47=FACE_OUTER_BOUND('',#88,.T.);
#48=FACE_OUTER_BOUND('',#89,.T.);
#49=FACE_OUTER_BOUND('',#90,.T.);
#50=FACE_OUTER_BOUND('',#91,.T.);
#51=FACE_OUTER_BOUND('',#92,.T.);
#52=FACE_OUTER_BOUND('',#93,.T.);
#53=FACE_OUTER_BOUND('',#94,.T.);
#54=FACE_OUTER_BOUND('',#95,.T.);
#55=FACE_OUTER_BOUND('',#96,.T.);
#56=FACE_OUTER_BOUND('',#97,.T.);
#57=FACE_OUTER_BOUND('',#98,.T.);
#58=FACE_OUTER_BOUND('',#99,.T.);
#59=FACE_OUTER_BOUND('',#100,.T.);
#60=FACE_OUTER_BOUND('',#101,.T.);
#61=FACE_OUTER_BOUND('',#102,.T.);
#62=FACE_OUTER_BOUND('',#103,.T.);
#63=FACE_OUTER_BOUND('',#104,.T.);
#64=FACE_OUTER_BOUND('',#105,.T.);
#65=FACE_OUTER_BOUND('',#106,.T.);
#66=FACE_OUTER_BOUND('',#107,.T.);
#67=FACE_OUTER_BOUND('',#108,.T.);
#68=FACE_OUTER_BOUND('',#109,.T.);
#69=FACE_OUTER_BOUND('',#110,.T.);
#70=FACE_OUTER_BOUND('',#111,.T.);
#71=FACE_OUTER_BOUND('',#112,.T.);
#72=FACE_OUTER_BOUND('',#113,.T.);
#73=FACE_OUTER_BOUND('',#114,.T.);
#74=FACE_OUTER_BOUND('',#115,.T.);
#75=FACE_OUTER_BOUND('',#116,.T.);
#76=FACE_OUTER_BOUND('',#117,.T.);
#77=FACE_OUTER_BOUND('',#118,.T.);
#78=FACE_OUTER_BOUND('',#119,.T.);
#79=FACE_OUTER_BOUND('',#126,.T.);
#80=EDGE_LOOP('',(#504,#505,#506,#507));
#81=EDGE_LOOP('',(#508,#509,#510,#511));
#82=EDGE_LOOP('',(#512,#513,#514,#515));
#83=EDGE_LOOP('',(#516,#517,#518,#519));
#84=EDGE_LOOP('',(#520,#521,#522,#523));
#85=EDGE_LOOP('',(#524,#525,#526,#527));
#86=EDGE_LOOP('',(#528,#529,#530,#531));
#87=EDGE_LOOP('',(#532,#533,#534,#535));
#88=EDGE_LOOP('',(#536,#537,#538,#539));
#89=EDGE_LOOP('',(#540,#541,#542,#543));
#90=EDGE_LOOP('',(#544,#545,#546,#547));
#91=EDGE_LOOP('',(#548,#549,#550,#551));
#92=EDGE_LOOP('',(#552,#553,#554,#555));
#93=EDGE_LOOP('',(#556,#557,#558,#559));
#94=EDGE_LOOP('',(#560,#561,#562,#563));
#95=EDGE_LOOP('',(#564,#565,#566,#567));
#96=EDGE_LOOP('',(#568,#569,#570,#571));
#97=EDGE_LOOP('',(#572,#573,#574,#575));
#98=EDGE_LOOP('',(#576,#577,#578,#579));
#99=EDGE_LOOP('',(#580,#581,#582,#583));
#100=EDGE_LOOP('',(#584,#585,#586,#587));
#101=EDGE_LOOP('',(#588,#589,#590,#591));
#102=EDGE_LOOP('',(#592,#593,#594,#595));
#103=EDGE_LOOP('',(#596,#597,#598,#599));
#104=EDGE_LOOP('',(#600,#601,#602,#603));
#105=EDGE_LOOP('',(#604,#605,#606,#607));
#106=EDGE_LOOP('',(#608,#609,#610,#611));
#107=EDGE_LOOP('',(#612,#613,#614,#615));
#108=EDGE_LOOP('',(#616,#617,#618,#619));
#109=EDGE_LOOP('',(#620,#621,#622,#623));
#110=EDGE_LOOP('',(#624,#625,#626,#627));
#111=EDGE_LOOP('',(#628,#629,#630,#631));
#112=EDGE_LOOP('',(#632,#633,#634,#635));
#113=EDGE_LOOP('',(#636,#637,#638,#639));
#114=EDGE_LOOP('',(#640,#641,#642,#643));
#115=EDGE_LOOP('',(#644,#645,#646,#647));
#116=EDGE_LOOP('',(#648,#649,#650,#651));
#117=EDGE_LOOP('',(#652,#653,#654,#655));
#118=EDGE_LOOP('',(#656,#657,#658,#659));
#119=EDGE_LOOP('',(#660,#661,#662,#663,#664,#665,#666,#667,#668,#669,#670,
#671,#672,#673,#674,#675,#676,#677,#678,#679,#680,#681,#682,#683,#684,#685,
#686,#687,#688,#689,#690,#691,#692));
#120=EDGE_LOOP('',(#693));
#121=EDGE_LOOP('',(#694));
#122=EDGE_LOOP('',(#695));
#123=EDGE_LOOP('',(#696));
#124=EDGE_LOOP('',(#697));
#125=EDGE_LOOP('',(#698));
#126=EDGE_LOOP('',(#699,#700,#701,#702,#703,#704,#705,#706,#707,#708,#709,
#710,#711,#712,#713,#714,#715,#716,#717,#718,#719,#720,#721,#722,#723,#724,
#725,#726,#727,#728,#729,#730,#731));
#127=EDGE_LOOP('',(#732));
#128=EDGE_LOOP('',(#733));
#129=EDGE_LOOP('',(#734));
#130=EDGE_LOOP('',(#735));
#131=EDGE_LOOP('',(#736));
#132=EDGE_LOOP('',(#737));
#133=LINE('',#1185,#192);
#134=LINE('',#1191,#193);
#135=LINE('',#1197,#194);
#136=LINE('',#1203,#195);
#137=LINE('',#1209,#196);
#138=LINE('',#1215,#197);
#139=LINE('',#1222,#198);
#140=LINE('',#1225,#199);
#141=LINE('',#1231,#200);
#142=LINE('',#1237,#201);
#143=LINE('',#1240,#202);
#144=LINE('',#1242,#203);
#145=LINE('',#1243,#204);
#146=LINE('',#1249,#205);
#147=LINE('',#1255,#206);
#148=LINE('',#1258,#207);
#149=LINE('',#1260,#208);
#150=LINE('',#1261,#209);
#151=LINE('',#1267,#210);
#152=LINE('',#1273,#211);
#153=LINE('',#1279,#212);
#154=LINE('',#1285,#213);
#155=LINE('',#1288,#214);
#156=LINE('',#1290,#215);
#157=LINE('',#1291,#216);
#158=LINE('',#1297,#217);
#159=LINE('',#1300,#218);
#160=LINE('',#1302,#219);
#161=LINE('',#1303,#220);
#162=LINE('',#1309,#221);
#163=LINE('',#1312,#222);
#164=LINE('',#1314,#223);
#165=LINE('',#1315,#224);
#166=LINE('',#1321,#225);
#167=LINE('',#1324,#226);
#168=LINE('',#1326,#227);
#169=LINE('',#1327,#228);
#170=LINE('',#1333,#229);
#171=LINE('',#1339,#230);
#172=LINE('',#1345,#231);
#173=LINE('',#1351,#232);
#174=LINE('',#1354,#233);
#175=LINE('',#1356,#234);
#176=LINE('',#1357,#235);
#177=LINE('',#1363,#236);
#178=LINE('',#1369,#237);
#179=LINE('',#1375,#238);
#180=LINE('',#1378,#239);
#181=LINE('',#1380,#240);
#182=LINE('',#1381,#241);
#183=LINE('',#1387,#242);
#184=LINE('',#1393,#243);
#185=LINE('',#1399,#244);
#186=LINE('',#1402,#245);
#187=LINE('',#1404,#246);
#188=LINE('',#1405,#247);
#189=LINE('',#1411,#248);
#190=LINE('',#1413,#249);
#191=LINE('',#1414,#250);
#192=VECTOR('',#927,1.49999999999999);
#193=VECTOR('',#934,1.5);
#194=VECTOR('',#941,1.5);
#195=VECTOR('',#948,1.49999999999999);
#196=VECTOR('',#955,1.49999999999999);
#197=VECTOR('',#962,3.5);
#198=VECTOR('',#969,10.);
#199=VECTOR('',#972,10.);
#200=VECTOR('',#979,10.);
#201=VECTOR('',#986,10.);
#202=VECTOR('',#989,10.);
#203=VECTOR('',#990,10.);
#204=VECTOR('',#991,10.);
#205=VECTOR('',#998,10.);
#206=VECTOR('',#1005,10.);
#207=VECTOR('',#1008,10.);
#208=VECTOR('',#1009,10.);
#209=VECTOR('',#1010,10.);
#210=VECTOR('',#1017,10.);
#211=VECTOR('',#1024,10.);
#212=VECTOR('',#1031,10.);
#213=VECTOR('',#1038,10.);
#214=VECTOR('',#1041,10.);
#215=VECTOR('',#1042,10.);
#216=VECTOR('',#1043,10.);
#217=VECTOR('',#1050,10.);
#218=VECTOR('',#1053,10.);
#219=VECTOR('',#1054,10.);
#220=VECTOR('',#1055,10.);
#221=VECTOR('',#1062,10.);
#222=VECTOR('',#1065,10.);
#223=VECTOR('',#1066,10.);
#224=VECTOR('',#1067,10.);
#225=VECTOR('',#1074,10.);
#226=VECTOR('',#1077,10.);
#227=VECTOR('',#1078,10.);
#228=VECTOR('',#1079,10.);
#229=VECTOR('',#1086,10.);
#230=VECTOR('',#1093,10.);
#231=VECTOR('',#1100,10.);
#232=VECTOR('',#1107,10.);
#233=VECTOR('',#1110,10.);
#234=VECTOR('',#1111,10.);
#235=VECTOR('',#1112,10.);
#236=VECTOR('',#1119,10.);
#237=VECTOR('',#1126,10.);
#238=VECTOR('',#1133,10.);
#239=VECTOR('',#1136,10.);
#240=VECTOR('',#1137,10.);
#241=VECTOR('',#1138,10.);
#242=VECTOR('',#1145,10.);
#243=VECTOR('',#1152,10.);
#244=VECTOR('',#1159,10.);
#245=VECTOR('',#1162,10.);
#246=VECTOR('',#1163,10.);
#247=VECTOR('',#1164,10.);
#248=VECTOR('',#1171,10.);
#249=VECTOR('',#1174,10.);
#250=VECTOR('',#1175,10.);
#251=CIRCLE('',#823,1.49999999999999);
#252=CIRCLE('',#824,1.49999999999999);
#253=CIRCLE('',#826,1.5);
#254=CIRCLE('',#827,1.5);
#255=CIRCLE('',#829,1.5);
#256=CIRCLE('',#830,1.5);
#257=CIRCLE('',#832,1.49999999999999);
#258=CIRCLE('',#833,1.49999999999999);
#259=CIRCLE('',#835,1.49999999999999);
#260=CIRCLE('',#836,1.49999999999999);
#261=CIRCLE('',#838,3.5);
#262=CIRCLE('',#839,3.5);
#263=CIRCLE('',#841,0.999999999999692);
#264=CIRCLE('',#842,0.999999999999692);
#265=CIRCLE('',#844,4.62851045838617);
#266=CIRCLE('',#845,4.62851045838617);
#267=CIRCLE('',#847,3.00000000000002);
#268=CIRCLE('',#848,3.00000000000002);
#269=CIRCLE('',#851,5.0000000000002);
#270=CIRCLE('',#852,5.0000000000002);
#271=CIRCLE('',#854,739.75408230002);
#272=CIRCLE('',#855,739.75408230002);
#273=CIRCLE('',#858,5.00000000000001);
#274=CIRCLE('',#859,5.00000000000001);
#275=CIRCLE('',#861,9.32028184172913);
#276=CIRCLE('',#862,9.32028184172913);
#277=CIRCLE('',#864,5.00000000000002);
#278=CIRCLE('',#865,5.00000000000002);
#279=CIRCLE('',#867,4.00000000000003);
#280=CIRCLE('',#868,4.00000000000003);
#281=CIRCLE('',#871,3.00000000000004);
#282=CIRCLE('',#872,3.00000000000004);
#283=CIRCLE('',#875,4.99999999999997);
#284=CIRCLE('',#876,4.99999999999997);
#285=CIRCLE('',#879,3.00000000000003);
#286=CIRCLE('',#880,3.00000000000003);
#287=CIRCLE('',#883,4.00000000000004);
#288=CIRCLE('',#884,4.00000000000004);
#289=CIRCLE('',#886,4.99999999999998);
#290=CIRCLE('',#887,4.99999999999998);
#291=CIRCLE('',#889,9.32028184172932);
#292=CIRCLE('',#890,9.32028184172932);
#293=CIRCLE('',#892,5.);
#294=CIRCLE('',#893,5.);
#295=CIRCLE('',#896,739.75408229914);
#296=CIRCLE('',#897,739.75408229914);
#297=CIRCLE('',#899,4.99999999997746);
#298=CIRCLE('',#900,4.99999999997746);
#299=CIRCLE('',#902,29.999999964791);
#300=CIRCLE('',#903,29.999999964791);
#301=CIRCLE('',#906,3.00000000000002);
#302=CIRCLE('',#907,3.00000000000002);
#303=CIRCLE('',#909,4.62851045838684);
#304=CIRCLE('',#910,4.62851045838684);
#305=CIRCLE('',#912,0.999999999999994);
#306=CIRCLE('',#913,0.999999999999994);
#307=CIRCLE('',#916,1.5);
#308=CIRCLE('',#917,1.5);
#309=VERTEX_POINT('',#1182);
#310=VERTEX_POINT('',#1184);
#311=VERTEX_POINT('',#1188);
#312=VERTEX_POINT('',#1190);
#313=VERTEX_POINT('',#1194);
#314=VERTEX_POINT('',#1196);
#315=VERTEX_POINT('',#1200);
#316=VERTEX_POINT('',#1202);
#317=VERTEX_POINT('',#1206);
#318=VERTEX_POINT('',#1208);
#319=VERTEX_POINT('',#1212);
#320=VERTEX_POINT('',#1214);
#321=VERTEX_POINT('',#1218);
#322=VERTEX_POINT('',#1219);
#323=VERTEX_POINT('',#1221);
#324=VERTEX_POINT('',#1223);
#325=VERTEX_POINT('',#1227);
#326=VERTEX_POINT('',#1229);
#327=VERTEX_POINT('',#1233);
#328=VERTEX_POINT('',#1235);
#329=VERTEX_POINT('',#1239);
#330=VERTEX_POINT('',#1241);
#331=VERTEX_POINT('',#1245);
#332=VERTEX_POINT('',#1247);
#333=VERTEX_POINT('',#1251);
#334=VERTEX_POINT('',#1253);
#335=VERTEX_POINT('',#1257);
#336=VERTEX_POINT('',#1259);
#337=VERTEX_POINT('',#1263);
#338=VERTEX_POINT('',#1265);
#339=VERTEX_POINT('',#1269);
#340=VERTEX_POINT('',#1271);
#341=VERTEX_POINT('',#1275);
#342=VERTEX_POINT('',#1277);
#343=VERTEX_POINT('',#1281);
#344=VERTEX_POINT('',#1283);
#345=VERTEX_POINT('',#1287);
#346=VERTEX_POINT('',#1289);
#347=VERTEX_POINT('',#1293);
#348=VERTEX_POINT('',#1295);
#349=VERTEX_POINT('',#1299);
#350=VERTEX_POINT('',#1301);
#351=VERTEX_POINT('',#1305);
#352=VERTEX_POINT('',#1307);
#353=VERTEX_POINT('',#1311);
#354=VERTEX_POINT('',#1313);
#355=VERTEX_POINT('',#1317);
#356=VERTEX_POINT('',#1319);
#357=VERTEX_POINT('',#1323);
#358=VERTEX_POINT('',#1325);
#359=VERTEX_POINT('',#1329);
#360=VERTEX_POINT('',#1331);
#361=VERTEX_POINT('',#1335);
#362=VERTEX_POINT('',#1337);
#363=VERTEX_POINT('',#1341);
#364=VERTEX_POINT('',#1343);
#365=VERTEX_POINT('',#1347);
#366=VERTEX_POINT('',#1349);
#367=VERTEX_POINT('',#1353);
#368=VERTEX_POINT('',#1355);
#369=VERTEX_POINT('',#1359);
#370=VERTEX_POINT('',#1361);
#371=VERTEX_POINT('',#1365);
#372=VERTEX_POINT('',#1367);
#373=VERTEX_POINT('',#1371);
#374=VERTEX_POINT('',#1373);
#375=VERTEX_POINT('',#1377);
#376=VERTEX_POINT('',#1379);
#377=VERTEX_POINT('',#1383);
#378=VERTEX_POINT('',#1385);
#379=VERTEX_POINT('',#1389);
#380=VERTEX_POINT('',#1391);
#381=VERTEX_POINT('',#1395);
#382=VERTEX_POINT('',#1397);
#383=VERTEX_POINT('',#1401);
#384=VERTEX_POINT('',#1403);
#385=VERTEX_POINT('',#1407);
#386=VERTEX_POINT('',#1409);
#387=EDGE_CURVE('',#309,#309,#251,.T.);
#388=EDGE_CURVE('',#309,#310,#133,.T.);
#389=EDGE_CURVE('',#310,#310,#252,.T.);
#390=EDGE_CURVE('',#311,#311,#253,.T.);
#391=EDGE_CURVE('',#311,#312,#134,.T.);
#392=EDGE_CURVE('',#312,#312,#254,.T.);
#393=EDGE_CURVE('',#313,#313,#255,.T.);
#394=EDGE_CURVE('',#313,#314,#135,.T.);
#395=EDGE_CURVE('',#314,#314,#256,.T.);
#396=EDGE_CURVE('',#315,#315,#257,.T.);
#397=EDGE_CURVE('',#315,#316,#136,.T.);
#398=EDGE_CURVE('',#316,#316,#258,.T.);
#399=EDGE_CURVE('',#317,#317,#259,.T.);
#400=EDGE_CURVE('',#317,#318,#137,.T.);
#401=EDGE_CURVE('',#318,#318,#260,.T.);
#402=EDGE_CURVE('',#319,#319,#261,.T.);
#403=EDGE_CURVE('',#319,#320,#138,.T.);
#404=EDGE_CURVE('',#320,#320,#262,.T.);
#405=EDGE_CURVE('',#321,#322,#263,.T.);
#406=EDGE_CURVE('',#322,#323,#139,.T.);
#407=EDGE_CURVE('',#324,#323,#264,.T.);
#408=EDGE_CURVE('',#321,#324,#140,.T.);
#409=EDGE_CURVE('',#325,#321,#265,.T.);
#410=EDGE_CURVE('',#326,#324,#266,.T.);
#411=EDGE_CURVE('',#325,#326,#141,.T.);
#412=EDGE_CURVE('',#327,#325,#267,.T.);
#413=EDGE_CURVE('',#328,#326,#268,.T.);
#414=EDGE_CURVE('',#327,#328,#142,.T.);
#415=EDGE_CURVE('',#329,#327,#143,.T.);
#416=EDGE_CURVE('',#330,#328,#144,.T.);
#417=EDGE_CURVE('',#329,#330,#145,.T.);
#418=EDGE_CURVE('',#331,#329,#269,.T.);
#419=EDGE_CURVE('',#332,#330,#270,.T.);
#420=EDGE_CURVE('',#331,#332,#146,.T.);
#421=EDGE_CURVE('',#333,#331,#271,.T.);
#422=EDGE_CURVE('',#334,#332,#272,.T.);
#423=EDGE_CURVE('',#333,#334,#147,.T.);
#424=EDGE_CURVE('',#335,#333,#148,.T.);
#425=EDGE_CURVE('',#336,#334,#149,.T.);
#426=EDGE_CURVE('',#335,#336,#150,.T.);
#427=EDGE_CURVE('',#337,#335,#273,.T.);
#428=EDGE_CURVE('',#338,#336,#274,.T.);
#429=EDGE_CURVE('',#337,#338,#151,.T.);
#430=EDGE_CURVE('',#339,#337,#275,.T.);
#431=EDGE_CURVE('',#340,#338,#276,.T.);
#432=EDGE_CURVE('',#339,#340,#152,.T.);
#433=EDGE_CURVE('',#341,#339,#277,.T.);
#434=EDGE_CURVE('',#342,#340,#278,.T.);
#435=EDGE_CURVE('',#341,#342,#153,.T.);
#436=EDGE_CURVE('',#343,#341,#279,.T.);
#437=EDGE_CURVE('',#344,#342,#280,.T.);
#438=EDGE_CURVE('',#343,#344,#154,.T.);
#439=EDGE_CURVE('',#345,#343,#155,.T.);
#440=EDGE_CURVE('',#346,#344,#156,.T.);
#441=EDGE_CURVE('',#345,#346,#157,.T.);
#442=EDGE_CURVE('',#347,#345,#281,.T.);
#443=EDGE_CURVE('',#348,#346,#282,.T.);
#444=EDGE_CURVE('',#347,#348,#158,.T.);
#445=EDGE_CURVE('',#349,#347,#159,.T.);
#446=EDGE_CURVE('',#350,#348,#160,.T.);
#447=EDGE_CURVE('',#349,#350,#161,.T.);
#448=EDGE_CURVE('',#351,#349,#283,.T.);
#449=EDGE_CURVE('',#352,#350,#284,.T.);
#450=EDGE_CURVE('',#351,#352,#162,.T.);
#451=EDGE_CURVE('',#353,#351,#163,.T.);
#452=EDGE_CURVE('',#354,#352,#164,.T.);
#453=EDGE_CURVE('',#353,#354,#165,.T.);
#454=EDGE_CURVE('',#355,#353,#285,.T.);
#455=EDGE_CURVE('',#356,#354,#286,.T.);
#456=EDGE_CURVE('',#355,#356,#166,.T.);
#457=EDGE_CURVE('',#357,#355,#167,.T.);
#458=EDGE_CURVE('',#358,#356,#168,.T.);
#459=EDGE_CURVE('',#357,#358,#169,.T.);
#460=EDGE_CURVE('',#359,#357,#287,.T.);
#461=EDGE_CURVE('',#360,#358,#288,.T.);
#462=EDGE_CURVE('',#359,#360,#170,.T.);
#463=EDGE_CURVE('',#361,#359,#289,.T.);
#464=EDGE_CURVE('',#362,#360,#290,.T.);
#465=EDGE_CURVE('',#361,#362,#171,.T.);
#466=EDGE_CURVE('',#363,#361,#291,.T.);
#467=EDGE_CURVE('',#364,#362,#292,.T.);
#468=EDGE_CURVE('',#363,#364,#172,.T.);
#469=EDGE_CURVE('',#365,#363,#293,.T.);
#470=EDGE_CURVE('',#366,#364,#294,.T.);
#471=EDGE_CURVE('',#365,#366,#173,.T.);
#472=EDGE_CURVE('',#367,#365,#174,.T.);
#473=EDGE_CURVE('',#368,#366,#175,.T.);
#474=EDGE_CURVE('',#367,#368,#176,.T.);
#475=EDGE_CURVE('',#369,#367,#295,.T.);
#476=EDGE_CURVE('',#370,#368,#296,.T.);
#477=EDGE_CURVE('',#369,#370,#177,.T.);
#478=EDGE_CURVE('',#371,#369,#297,.T.);
#479=EDGE_CURVE('',#372,#370,#298,.T.);
#480=EDGE_CURVE('',#371,#372,#178,.T.);
#481=EDGE_CURVE('',#373,#371,#299,.T.);
#482=EDGE_CURVE('',#374,#372,#300,.T.);
#483=EDGE_CURVE('',#373,#374,#179,.T.);
#484=EDGE_CURVE('',#375,#373,#180,.T.);
#485=EDGE_CURVE('',#376,#374,#181,.T.);
#486=EDGE_CURVE('',#375,#376,#182,.T.);
#487=EDGE_CURVE('',#377,#375,#301,.T.);
#488=EDGE_CURVE('',#378,#376,#302,.T.);
#489=EDGE_CURVE('',#377,#378,#183,.T.);
#490=EDGE_CURVE('',#379,#377,#303,.T.);
#491=EDGE_CURVE('',#380,#378,#304,.T.);
#492=EDGE_CURVE('',#379,#380,#184,.T.);
#493=EDGE_CURVE('',#381,#379,#305,.T.);
#494=EDGE_CURVE('',#382,#380,#306,.T.);
#495=EDGE_CURVE('',#381,#382,#185,.T.);
#496=EDGE_CURVE('',#383,#381,#186,.T.);
#497=EDGE_CURVE('',#384,#382,#187,.T.);
#498=EDGE_CURVE('',#383,#384,#188,.T.);
#499=EDGE_CURVE('',#385,#383,#307,.T.);
#500=EDGE_CURVE('',#386,#384,#308,.T.);
#501=EDGE_CURVE('',#385,#386,#189,.T.);
#502=EDGE_CURVE('',#322,#385,#190,.T.);
#503=EDGE_CURVE('',#323,#386,#191,.T.);
#504=ORIENTED_EDGE('',*,*,#387,.F.);
#505=ORIENTED_EDGE('',*,*,#388,.T.);
#506=ORIENTED_EDGE('',*,*,#389,.T.);
#507=ORIENTED_EDGE('',*,*,#388,.F.);
#508=ORIENTED_EDGE('',*,*,#390,.F.);
#509=ORIENTED_EDGE('',*,*,#391,.T.);
#510=ORIENTED_EDGE('',*,*,#392,.T.);
#511=ORIENTED_EDGE('',*,*,#391,.F.);
#512=ORIENTED_EDGE('',*,*,#393,.F.);
#513=ORIENTED_EDGE('',*,*,#394,.T.);
#514=ORIENTED_EDGE('',*,*,#395,.T.);
#515=ORIENTED_EDGE('',*,*,#394,.F.);
#516=ORIENTED_EDGE('',*,*,#396,.F.);
#517=ORIENTED_EDGE('',*,*,#397,.T.);
#518=ORIENTED_EDGE('',*,*,#398,.T.);
#519=ORIENTED_EDGE('',*,*,#397,.F.);
#520=ORIENTED_EDGE('',*,*,#399,.F.);
#521=ORIENTED_EDGE('',*,*,#400,.T.);
#522=ORIENTED_EDGE('',*,*,#401,.T.);
#523=ORIENTED_EDGE('',*,*,#400,.F.);
#524=ORIENTED_EDGE('',*,*,#402,.F.);
#525=ORIENTED_EDGE('',*,*,#403,.T.);
#526=ORIENTED_EDGE('',*,*,#404,.T.);
#527=ORIENTED_EDGE('',*,*,#403,.F.);
#528=ORIENTED_EDGE('',*,*,#405,.T.);
#529=ORIENTED_EDGE('',*,*,#406,.T.);
#530=ORIENTED_EDGE('',*,*,#407,.F.);
#531=ORIENTED_EDGE('',*,*,#408,.F.);
#532=ORIENTED_EDGE('',*,*,#409,.T.);
#533=ORIENTED_EDGE('',*,*,#408,.T.);
#534=ORIENTED_EDGE('',*,*,#410,.F.);
#535=ORIENTED_EDGE('',*,*,#411,.F.);
#536=ORIENTED_EDGE('',*,*,#412,.T.);
#537=ORIENTED_EDGE('',*,*,#411,.T.);
#538=ORIENTED_EDGE('',*,*,#413,.F.);
#539=ORIENTED_EDGE('',*,*,#414,.F.);
#540=ORIENTED_EDGE('',*,*,#415,.T.);
#541=ORIENTED_EDGE('',*,*,#414,.T.);
#542=ORIENTED_EDGE('',*,*,#416,.F.);
#543=ORIENTED_EDGE('',*,*,#417,.F.);
#544=ORIENTED_EDGE('',*,*,#418,.T.);
#545=ORIENTED_EDGE('',*,*,#417,.T.);
#546=ORIENTED_EDGE('',*,*,#419,.F.);
#547=ORIENTED_EDGE('',*,*,#420,.F.);
#548=ORIENTED_EDGE('',*,*,#421,.T.);
#549=ORIENTED_EDGE('',*,*,#420,.T.);
#550=ORIENTED_EDGE('',*,*,#422,.F.);
#551=ORIENTED_EDGE('',*,*,#423,.F.);
#552=ORIENTED_EDGE('',*,*,#424,.T.);
#553=ORIENTED_EDGE('',*,*,#423,.T.);
#554=ORIENTED_EDGE('',*,*,#425,.F.);
#555=ORIENTED_EDGE('',*,*,#426,.F.);
#556=ORIENTED_EDGE('',*,*,#427,.T.);
#557=ORIENTED_EDGE('',*,*,#426,.T.);
#558=ORIENTED_EDGE('',*,*,#428,.F.);
#559=ORIENTED_EDGE('',*,*,#429,.F.);
#560=ORIENTED_EDGE('',*,*,#430,.T.);
#561=ORIENTED_EDGE('',*,*,#429,.T.);
#562=ORIENTED_EDGE('',*,*,#431,.F.);
#563=ORIENTED_EDGE('',*,*,#432,.F.);
#564=ORIENTED_EDGE('',*,*,#433,.T.);
#565=ORIENTED_EDGE('',*,*,#432,.T.);
#566=ORIENTED_EDGE('',*,*,#434,.F.);
#567=ORIENTED_EDGE('',*,*,#435,.F.);
#568=ORIENTED_EDGE('',*,*,#436,.T.);
#569=ORIENTED_EDGE('',*,*,#435,.T.);
#570=ORIENTED_EDGE('',*,*,#437,.F.);
#571=ORIENTED_EDGE('',*,*,#438,.F.);
#572=ORIENTED_EDGE('',*,*,#439,.T.);
#573=ORIENTED_EDGE('',*,*,#438,.T.);
#574=ORIENTED_EDGE('',*,*,#440,.F.);
#575=ORIENTED_EDGE('',*,*,#441,.F.);
#576=ORIENTED_EDGE('',*,*,#442,.T.);
#577=ORIENTED_EDGE('',*,*,#441,.T.);
#578=ORIENTED_EDGE('',*,*,#443,.F.);
#579=ORIENTED_EDGE('',*,*,#444,.F.);
#580=ORIENTED_EDGE('',*,*,#445,.T.);
#581=ORIENTED_EDGE('',*,*,#444,.T.);
#582=ORIENTED_EDGE('',*,*,#446,.F.);
#583=ORIENTED_EDGE('',*,*,#447,.F.);
#584=ORIENTED_EDGE('',*,*,#448,.T.);
#585=ORIENTED_EDGE('',*,*,#447,.T.);
#586=ORIENTED_EDGE('',*,*,#449,.F.);
#587=ORIENTED_EDGE('',*,*,#450,.F.);
#588=ORIENTED_EDGE('',*,*,#451,.T.);
#589=ORIENTED_EDGE('',*,*,#450,.T.);
#590=ORIENTED_EDGE('',*,*,#452,.F.);
#591=ORIENTED_EDGE('',*,*,#453,.F.);
#592=ORIENTED_EDGE('',*,*,#454,.T.);
#593=ORIENTED_EDGE('',*,*,#453,.T.);
#594=ORIENTED_EDGE('',*,*,#455,.F.);
#595=ORIENTED_EDGE('',*,*,#456,.F.);
#596=ORIENTED_EDGE('',*,*,#457,.T.);
#597=ORIENTED_EDGE('',*,*,#456,.T.);
#598=ORIENTED_EDGE('',*,*,#458,.F.);
#599=ORIENTED_EDGE('',*,*,#459,.F.);
#600=ORIENTED_EDGE('',*,*,#460,.T.);
#601=ORIENTED_EDGE('',*,*,#459,.T.);
#602=ORIENTED_EDGE('',*,*,#461,.F.);
#603=ORIENTED_EDGE('',*,*,#462,.F.);
#604=ORIENTED_EDGE('',*,*,#463,.T.);
#605=ORIENTED_EDGE('',*,*,#462,.T.);
#606=ORIENTED_EDGE('',*,*,#464,.F.);
#607=ORIENTED_EDGE('',*,*,#465,.F.);
#608=ORIENTED_EDGE('',*,*,#466,.T.);
#609=ORIENTED_EDGE('',*,*,#465,.T.);
#610=ORIENTED_EDGE('',*,*,#467,.F.);
#611=ORIENTED_EDGE('',*,*,#468,.F.);
#612=ORIENTED_EDGE('',*,*,#469,.T.);
#613=ORIENTED_EDGE('',*,*,#468,.T.);
#614=ORIENTED_EDGE('',*,*,#470,.F.);
#615=ORIENTED_EDGE('',*,*,#471,.F.);
#616=ORIENTED_EDGE('',*,*,#472,.T.);
#617=ORIENTED_EDGE('',*,*,#471,.T.);
#618=ORIENTED_EDGE('',*,*,#473,.F.);
#619=ORIENTED_EDGE('',*,*,#474,.F.);
#620=ORIENTED_EDGE('',*,*,#475,.T.);
#621=ORIENTED_EDGE('',*,*,#474,.T.);
#622=ORIENTED_EDGE('',*,*,#476,.F.);
#623=ORIENTED_EDGE('',*,*,#477,.F.);
#624=ORIENTED_EDGE('',*,*,#478,.T.);
#625=ORIENTED_EDGE('',*,*,#477,.T.);
#626=ORIENTED_EDGE('',*,*,#479,.F.);
#627=ORIENTED_EDGE('',*,*,#480,.F.);
#628=ORIENTED_EDGE('',*,*,#481,.T.);
#629=ORIENTED_EDGE('',*,*,#480,.T.);
#630=ORIENTED_EDGE('',*,*,#482,.F.);
#631=ORIENTED_EDGE('',*,*,#483,.F.);
#632=ORIENTED_EDGE('',*,*,#484,.T.);
#633=ORIENTED_EDGE('',*,*,#483,.T.);
#634=ORIENTED_EDGE('',*,*,#485,.F.);
#635=ORIENTED_EDGE('',*,*,#486,.F.);
#636=ORIENTED_EDGE('',*,*,#487,.T.);
#637=ORIENTED_EDGE('',*,*,#486,.T.);
#638=ORIENTED_EDGE('',*,*,#488,.F.);
#639=ORIENTED_EDGE('',*,*,#489,.F.);
#640=ORIENTED_EDGE('',*,*,#490,.T.);
#641=ORIENTED_EDGE('',*,*,#489,.T.);
#642=ORIENTED_EDGE('',*,*,#491,.F.);
#643=ORIENTED_EDGE('',*,*,#492,.F.);
#644=ORIENTED_EDGE('',*,*,#493,.T.);
#645=ORIENTED_EDGE('',*,*,#492,.T.);
#646=ORIENTED_EDGE('',*,*,#494,.F.);
#647=ORIENTED_EDGE('',*,*,#495,.F.);
#648=ORIENTED_EDGE('',*,*,#496,.T.);
#649=ORIENTED_EDGE('',*,*,#495,.T.);
#650=ORIENTED_EDGE('',*,*,#497,.F.);
#651=ORIENTED_EDGE('',*,*,#498,.F.);
#652=ORIENTED_EDGE('',*,*,#499,.T.);
#653=ORIENTED_EDGE('',*,*,#498,.T.);
#654=ORIENTED_EDGE('',*,*,#500,.F.);
#655=ORIENTED_EDGE('',*,*,#501,.F.);
#656=ORIENTED_EDGE('',*,*,#502,.T.);
#657=ORIENTED_EDGE('',*,*,#501,.T.);
#658=ORIENTED_EDGE('',*,*,#503,.F.);
#659=ORIENTED_EDGE('',*,*,#406,.F.);
#660=ORIENTED_EDGE('',*,*,#503,.T.);
#661=ORIENTED_EDGE('',*,*,#500,.T.);
#662=ORIENTED_EDGE('',*,*,#497,.T.);
#663=ORIENTED_EDGE('',*,*,#494,.T.);
#664=ORIENTED_EDGE('',*,*,#491,.T.);
#665=ORIENTED_EDGE('',*,*,#488,.T.);
#666=ORIENTED_EDGE('',*,*,#485,.T.);
#667=ORIENTED_EDGE('',*,*,#482,.T.);
#668=ORIENTED_EDGE('',*,*,#479,.T.);
#669=ORIENTED_EDGE('',*,*,#476,.T.);
#670=ORIENTED_EDGE('',*,*,#473,.T.);
#671=ORIENTED_EDGE('',*,*,#470,.T.);
#672=ORIENTED_EDGE('',*,*,#467,.T.);
#673=ORIENTED_EDGE('',*,*,#464,.T.);
#674=ORIENTED_EDGE('',*,*,#461,.T.);
#675=ORIENTED_EDGE('',*,*,#458,.T.);
#676=ORIENTED_EDGE('',*,*,#455,.T.);
#677=ORIENTED_EDGE('',*,*,#452,.T.);
#678=ORIENTED_EDGE('',*,*,#449,.T.);
#679=ORIENTED_EDGE('',*,*,#446,.T.);
#680=ORIENTED_EDGE('',*,*,#443,.T.);
#681=ORIENTED_EDGE('',*,*,#440,.T.);
#682=ORIENTED_EDGE('',*,*,#437,.T.);
#683=ORIENTED_EDGE('',*,*,#434,.T.);
#684=ORIENTED_EDGE('',*,*,#431,.T.);
#685=ORIENTED_EDGE('',*,*,#428,.T.);
#686=ORIENTED_EDGE('',*,*,#425,.T.);
#687=ORIENTED_EDGE('',*,*,#422,.T.);
#688=ORIENTED_EDGE('',*,*,#419,.T.);
#689=ORIENTED_EDGE('',*,*,#416,.T.);
#690=ORIENTED_EDGE('',*,*,#413,.T.);
#691=ORIENTED_EDGE('',*,*,#410,.T.);
#692=ORIENTED_EDGE('',*,*,#407,.T.);
#693=ORIENTED_EDGE('',*,*,#402,.T.);
#694=ORIENTED_EDGE('',*,*,#399,.T.);
#695=ORIENTED_EDGE('',*,*,#396,.T.);
#696=ORIENTED_EDGE('',*,*,#393,.T.);
#697=ORIENTED_EDGE('',*,*,#390,.T.);
#698=ORIENTED_EDGE('',*,*,#387,.T.);
#699=ORIENTED_EDGE('',*,*,#502,.F.);
#700=ORIENTED_EDGE('',*,*,#405,.F.);
#701=ORIENTED_EDGE('',*,*,#409,.F.);
#702=ORIENTED_EDGE('',*,*,#412,.F.);
#703=ORIENTED_EDGE('',*,*,#415,.F.);
#704=ORIENTED_EDGE('',*,*,#418,.F.);
#705=ORIENTED_EDGE('',*,*,#421,.F.);
#706=ORIENTED_EDGE('',*,*,#424,.F.);
#707=ORIENTED_EDGE('',*,*,#427,.F.);
#708=ORIENTED_EDGE('',*,*,#430,.F.);
#709=ORIENTED_EDGE('',*,*,#433,.F.);
#710=ORIENTED_EDGE('',*,*,#436,.F.);
#711=ORIENTED_EDGE('',*,*,#439,.F.);
#712=ORIENTED_EDGE('',*,*,#442,.F.);
#713=ORIENTED_EDGE('',*,*,#445,.F.);
#714=ORIENTED_EDGE('',*,*,#448,.F.);
#715=ORIENTED_EDGE('',*,*,#451,.F.);
#716=ORIENTED_EDGE('',*,*,#454,.F.);
#717=ORIENTED_EDGE('',*,*,#457,.F.);
#718=ORIENTED_EDGE('',*,*,#460,.F.);
#719=ORIENTED_EDGE('',*,*,#463,.F.);
#720=ORIENTED_EDGE('',*,*,#466,.F.);
#721=ORIENTED_EDGE('',*,*,#469,.F.);
#722=ORIENTED_EDGE('',*,*,#472,.F.);
#723=ORIENTED_EDGE('',*,*,#475,.F.);
#724=ORIENTED_EDGE('',*,*,#478,.F.);
#725=ORIENTED_EDGE('',*,*,#481,.F.);
#726=ORIENTED_EDGE('',*,*,#484,.F.);
#727=ORIENTED_EDGE('',*,*,#487,.F.);
#728=ORIENTED_EDGE('',*,*,#490,.F.);
#729=ORIENTED_EDGE('',*,*,#493,.F.);
#730=ORIENTED_EDGE('',*,*,#496,.F.);
#731=ORIENTED_EDGE('',*,*,#499,.F.);
#732=ORIENTED_EDGE('',*,*,#404,.F.);
#733=ORIENTED_EDGE('',*,*,#401,.F.);
#734=ORIENTED_EDGE('',*,*,#398,.F.);
#735=ORIENTED_EDGE('',*,*,#395,.F.);
#736=ORIENTED_EDGE('',*,*,#392,.F.);
#737=ORIENTED_EDGE('',*,*,#389,.F.);
#738=CYLINDRICAL_SURFACE('',#822,1.49999999999999);
#739=CYLINDRICAL_SURFACE('',#825,1.5);
#740=CYLINDRICAL_SURFACE('',#828,1.5);
#741=CYLINDRICAL_SURFACE('',#831,1.49999999999999);
#742=CYLINDRICAL_SURFACE('',#834,1.49999999999999);
#743=CYLINDRICAL_SURFACE('',#837,3.5);
#744=CYLINDRICAL_SURFACE('',#840,0.999999999999692);
#745=CYLINDRICAL_SURFACE('',#843,4.62851045838617);
#746=CYLINDRICAL_SURFACE('',#846,3.00000000000002);
#747=CYLINDRICAL_SURFACE('',#850,5.0000000000002);
#748=CYLINDRICAL_SURFACE('',#853,739.75408230002);
#749=CYLINDRICAL_SURFACE('',#857,5.00000000000001);
#750=CYLINDRICAL_SURFACE('',#860,9.32028184172913);
#751=CYLINDRICAL_SURFACE('',#863,5.00000000000002);
#752=CYLINDRICAL_SURFACE('',#866,4.00000000000003);
#753=CYLINDRICAL_SURFACE('',#870,3.00000000000004);
#754=CYLINDRICAL_SURFACE('',#874,4.99999999999997);
#755=CYLINDRICAL_SURFACE('',#878,3.00000000000003);
#756=CYLINDRICAL_SURFACE('',#882,4.00000000000004);
#757=CYLINDRICAL_SURFACE('',#885,4.99999999999998);
#758=CYLINDRICAL_SURFACE('',#888,9.32028184172932);
#759=CYLINDRICAL_SURFACE('',#891,5.);
#760=CYLINDRICAL_SURFACE('',#895,739.75408229914);
#761=CYLINDRICAL_SURFACE('',#898,4.99999999997746);
#762=CYLINDRICAL_SURFACE('',#901,29.999999964791);
#763=CYLINDRICAL_SURFACE('',#905,3.00000000000002);
#764=CYLINDRICAL_SURFACE('',#908,4.62851045838684);
#765=CYLINDRICAL_SURFACE('',#911,0.999999999999994);
#766=CYLINDRICAL_SURFACE('',#915,1.5);
#767=ADVANCED_FACE('',(#39),#738,.F.);
#768=ADVANCED_FACE('',(#40),#739,.F.);
#769=ADVANCED_FACE('',(#41),#740,.F.);
#770=ADVANCED_FACE('',(#42),#741,.F.);
#771=ADVANCED_FACE('',(#43),#742,.F.);
#772=ADVANCED_FACE('',(#44),#743,.F.);
#773=ADVANCED_FACE('',(#45),#744,.T.);
#774=ADVANCED_FACE('',(#46),#745,.T.);
#775=ADVANCED_FACE('',(#47),#746,.T.);
#776=ADVANCED_FACE('',(#48),#27,.T.);
#777=ADVANCED_FACE('',(#49),#747,.T.);
#778=ADVANCED_FACE('',(#50),#748,.F.);
#779=ADVANCED_FACE('',(#51),#28,.T.);
#780=ADVANCED_FACE('',(#52),#749,.F.);
#781=ADVANCED_FACE('',(#53),#750,.F.);
#782=ADVANCED_FACE('',(#54),#751,.T.);
#783=ADVANCED_FACE('',(#55),#752,.F.);
#784=ADVANCED_FACE('',(#56),#29,.T.);
#785=ADVANCED_FACE('',(#57),#753,.T.);
#786=ADVANCED_FACE('',(#58),#30,.T.);
#787=ADVANCED_FACE('',(#59),#754,.F.);
#788=ADVANCED_FACE('',(#60),#31,.T.);
#789=ADVANCED_FACE('',(#61),#755,.T.);
#790=ADVANCED_FACE('',(#62),#32,.T.);
#791=ADVANCED_FACE('',(#63),#756,.F.);
#792=ADVANCED_FACE('',(#64),#757,.T.);
#793=ADVANCED_FACE('',(#65),#758,.F.);
#794=ADVANCED_FACE('',(#66),#759,.F.);
#795=ADVANCED_FACE('',(#67),#33,.T.);
#796=ADVANCED_FACE('',(#68),#760,.F.);
#797=ADVANCED_FACE('',(#69),#761,.T.);
#798=ADVANCED_FACE('',(#70),#762,.F.);
#799=ADVANCED_FACE('',(#71),#34,.T.);
#800=ADVANCED_FACE('',(#72),#763,.T.);
#801=ADVANCED_FACE('',(#73),#764,.T.);
#802=ADVANCED_FACE('',(#74),#765,.T.);
#803=ADVANCED_FACE('',(#75),#35,.T.);
#804=ADVANCED_FACE('',(#76),#766,.F.);
#805=ADVANCED_FACE('',(#77),#36,.T.);
#806=ADVANCED_FACE('',(#78,#15,#16,#17,#18,#19,#20),#37,.T.);
#807=ADVANCED_FACE('',(#79,#21,#22,#23,#24,#25,#26),#38,.F.);
#808=CLOSED_SHELL('',(#767,#768,#769,#770,#771,#772,#773,#774,#775,#776,
#777,#778,#779,#780,#781,#782,#783,#784,#785,#786,#787,#788,#789,#790,#791,
#792,#793,#794,#795,#796,#797,#798,#799,#800,#801,#802,#803,#804,#805,#806,
#807));
#809=DERIVED_UNIT_ELEMENT(#811,1.);
#810=DERIVED_UNIT_ELEMENT(#1422,-3.);
#811=(
MASS_UNIT()
NAMED_UNIT(*)
SI_UNIT(.KILO.,.GRAM.)
);
#812=DERIVED_UNIT((#809,#810));
#813=MEASURE_REPRESENTATION_ITEM('density measure',
POSITIVE_RATIO_MEASURE(7850.),#812);
#814=PROPERTY_DEFINITION_REPRESENTATION(#819,#816);
#815=PROPERTY_DEFINITION_REPRESENTATION(#820,#817);
#816=REPRESENTATION('material name',(#818),#1419);
#817=REPRESENTATION('density',(#813),#1419);
#818=DESCRIPTIVE_REPRESENTATION_ITEM('Steel','Steel');
#819=PROPERTY_DEFINITION('material property','material name',#1429);
#820=PROPERTY_DEFINITION('material property','density of part',#1429);
#821=AXIS2_PLACEMENT_3D('',#1180,#921,#922);
#822=AXIS2_PLACEMENT_3D('',#1181,#923,#924);
#823=AXIS2_PLACEMENT_3D('',#1183,#925,#926);
#824=AXIS2_PLACEMENT_3D('',#1186,#928,#929);
#825=AXIS2_PLACEMENT_3D('',#1187,#930,#931);
#826=AXIS2_PLACEMENT_3D('',#1189,#932,#933);
#827=AXIS2_PLACEMENT_3D('',#1192,#935,#936);
#828=AXIS2_PLACEMENT_3D('',#1193,#937,#938);
#829=AXIS2_PLACEMENT_3D('',#1195,#939,#940);
#830=AXIS2_PLACEMENT_3D('',#1198,#942,#943);
#831=AXIS2_PLACEMENT_3D('',#1199,#944,#945);
#832=AXIS2_PLACEMENT_3D('',#1201,#946,#947);
#833=AXIS2_PLACEMENT_3D('',#1204,#949,#950);
#834=AXIS2_PLACEMENT_3D('',#1205,#951,#952);
#835=AXIS2_PLACEMENT_3D('',#1207,#953,#954);
#836=AXIS2_PLACEMENT_3D('',#1210,#956,#957);
#837=AXIS2_PLACEMENT_3D('',#1211,#958,#959);
#838=AXIS2_PLACEMENT_3D('',#1213,#960,#961);
#839=AXIS2_PLACEMENT_3D('',#1216,#963,#964);
#840=AXIS2_PLACEMENT_3D('',#1217,#965,#966);
#841=AXIS2_PLACEMENT_3D('',#1220,#967,#968);
#842=AXIS2_PLACEMENT_3D('',#1224,#970,#971);
#843=AXIS2_PLACEMENT_3D('',#1226,#973,#974);
#844=AXIS2_PLACEMENT_3D('',#1228,#975,#976);
#845=AXIS2_PLACEMENT_3D('',#1230,#977,#978);
#846=AXIS2_PLACEMENT_3D('',#1232,#980,#981);
#847=AXIS2_PLACEMENT_3D('',#1234,#982,#983);
#848=AXIS2_PLACEMENT_3D('',#1236,#984,#985);
#849=AXIS2_PLACEMENT_3D('',#1238,#987,#988);
#850=AXIS2_PLACEMENT_3D('',#1244,#992,#993);
#851=AXIS2_PLACEMENT_3D('',#1246,#994,#995);
#852=AXIS2_PLACEMENT_3D('',#1248,#996,#997);
#853=AXIS2_PLACEMENT_3D('',#1250,#999,#1000);
#854=AXIS2_PLACEMENT_3D('',#1252,#1001,#1002);
#855=AXIS2_PLACEMENT_3D('',#1254,#1003,#1004);
#856=AXIS2_PLACEMENT_3D('',#1256,#1006,#1007);
#857=AXIS2_PLACEMENT_3D('',#1262,#1011,#1012);
#858=AXIS2_PLACEMENT_3D('',#1264,#1013,#1014);
#859=AXIS2_PLACEMENT_3D('',#1266,#1015,#1016);
#860=AXIS2_PLACEMENT_3D('',#1268,#1018,#1019);
#861=AXIS2_PLACEMENT_3D('',#1270,#1020,#1021);
#862=AXIS2_PLACEMENT_3D('',#1272,#1022,#1023);
#863=AXIS2_PLACEMENT_3D('',#1274,#1025,#1026);
#864=AXIS2_PLACEMENT_3D('',#1276,#1027,#1028);
#865=AXIS2_PLACEMENT_3D('',#1278,#1029,#1030);
#866=AXIS2_PLACEMENT_3D('',#1280,#1032,#1033);
#867=AXIS2_PLACEMENT_3D('',#1282,#1034,#1035);
#868=AXIS2_PLACEMENT_3D('',#1284,#1036,#1037);
#869=AXIS2_PLACEMENT_3D('',#1286,#1039,#1040);
#870=AXIS2_PLACEMENT_3D('',#1292,#1044,#1045);
#871=AXIS2_PLACEMENT_3D('',#1294,#1046,#1047);
#872=AXIS2_PLACEMENT_3D('',#1296,#1048,#1049);
#873=AXIS2_PLACEMENT_3D('',#1298,#1051,#1052);
#874=AXIS2_PLACEMENT_3D('',#1304,#1056,#1057);
#875=AXIS2_PLACEMENT_3D('',#1306,#1058,#1059);
#876=AXIS2_PLACEMENT_3D('',#1308,#1060,#1061);
#877=AXIS2_PLACEMENT_3D('',#1310,#1063,#1064);
#878=AXIS2_PLACEMENT_3D('',#1316,#1068,#1069);
#879=AXIS2_PLACEMENT_3D('',#1318,#1070,#1071);
#880=AXIS2_PLACEMENT_3D('',#1320,#1072,#1073);
#881=AXIS2_PLACEMENT_3D('',#1322,#1075,#1076);
#882=AXIS2_PLACEMENT_3D('',#1328,#1080,#1081);
#883=AXIS2_PLACEMENT_3D('',#1330,#1082,#1083);
#884=AXIS2_PLACEMENT_3D('',#1332,#1084,#1085);
#885=AXIS2_PLACEMENT_3D('',#1334,#1087,#1088);
#886=AXIS2_PLACEMENT_3D('',#1336,#1089,#1090);
#887=AXIS2_PLACEMENT_3D('',#1338,#1091,#1092);
#888=AXIS2_PLACEMENT_3D('',#1340,#1094,#1095);
#889=AXIS2_PLACEMENT_3D('',#1342,#1096,#1097);
#890=AXIS2_PLACEMENT_3D('',#1344,#1098,#1099);
#891=AXIS2_PLACEMENT_3D('',#1346,#1101,#1102);
#892=AXIS2_PLACEMENT_3D('',#1348,#1103,#1104);
#893=AXIS2_PLACEMENT_3D('',#1350,#1105,#1106);
#894=AXIS2_PLACEMENT_3D('',#1352,#1108,#1109);
#895=AXIS2_PLACEMENT_3D('',#1358,#1113,#1114);
#896=AXIS2_PLACEMENT_3D('',#1360,#1115,#1116);
#897=AXIS2_PLACEMENT_3D('',#1362,#1117,#1118);
#898=AXIS2_PLACEMENT_3D('',#1364,#1120,#1121);
#899=AXIS2_PLACEMENT_3D('',#1366,#1122,#1123);
#900=AXIS2_PLACEMENT_3D('',#1368,#1124,#1125);
#901=AXIS2_PLACEMENT_3D('',#1370,#1127,#1128);
#902=AXIS2_PLACEMENT_3D('',#1372,#1129,#1130);
#903=AXIS2_PLACEMENT_3D('',#1374,#1131,#1132);
#904=AXIS2_PLACEMENT_3D('',#1376,#1134,#1135);
#905=AXIS2_PLACEMENT_3D('',#1382,#1139,#1140);
#906=AXIS2_PLACEMENT_3D('',#1384,#1141,#1142);
#907=AXIS2_PLACEMENT_3D('',#1386,#1143,#1144);
#908=AXIS2_PLACEMENT_3D('',#1388,#1146,#1147);
#909=AXIS2_PLACEMENT_3D('',#1390,#1148,#1149);
#910=AXIS2_PLACEMENT_3D('',#1392,#1150,#1151);
#911=AXIS2_PLACEMENT_3D('',#1394,#1153,#1154);
#912=AXIS2_PLACEMENT_3D('',#1396,#1155,#1156);
#913=AXIS2_PLACEMENT_3D('',#1398,#1157,#1158);
#914=AXIS2_PLACEMENT_3D('',#1400,#1160,#1161);
#915=AXIS2_PLACEMENT_3D('',#1406,#1165,#1166);
#916=AXIS2_PLACEMENT_3D('',#1408,#1167,#1168);
#917=AXIS2_PLACEMENT_3D('',#1410,#1169,#1170);
#918=AXIS2_PLACEMENT_3D('',#1412,#1172,#1173);
#919=AXIS2_PLACEMENT_3D('',#1415,#1176,#1177);
#920=AXIS2_PLACEMENT_3D('',#1416,#1178,#1179);
#921=DIRECTION('axis',(0.,0.,1.));
#922=DIRECTION('refdir',(1.,0.,0.));
#923=DIRECTION('center_axis',(0.,0.,1.));
#924=DIRECTION('ref_axis',(-1.,0.,0.));
#925=DIRECTION('center_axis',(0.,0.,-1.));
#926=DIRECTION('ref_axis',(-1.,0.,0.));
#927=DIRECTION('',(0.,0.,-1.));
#928=DIRECTION('center_axis',(0.,0.,-1.));
#929=DIRECTION('ref_axis',(-1.,0.,0.));
#930=DIRECTION('center_axis',(0.,0.,1.));
#931=DIRECTION('ref_axis',(-1.,0.,0.));
#932=DIRECTION('center_axis',(0.,0.,-1.));
#933=DIRECTION('ref_axis',(-1.,0.,0.));
#934=DIRECTION('',(0.,0.,-1.));
#935=DIRECTION('center_axis',(0.,0.,-1.));
#936=DIRECTION('ref_axis',(-1.,0.,0.));
#937=DIRECTION('center_axis',(0.,0.,1.));
#938=DIRECTION('ref_axis',(-1.,0.,0.));
#939=DIRECTION('center_axis',(0.,0.,-1.));
#940=DIRECTION('ref_axis',(-1.,0.,0.));
#941=DIRECTION('',(0.,0.,-1.));
#942=DIRECTION('center_axis',(0.,0.,-1.));
#943=DIRECTION('ref_axis',(-1.,0.,0.));
#944=DIRECTION('center_axis',(0.,0.,1.));
#945=DIRECTION('ref_axis',(-1.,0.,0.));
#946=DIRECTION('center_axis',(0.,0.,-1.));
#947=DIRECTION('ref_axis',(-1.,0.,0.));
#948=DIRECTION('',(0.,0.,-1.));
#949=DIRECTION('center_axis',(0.,0.,-1.));
#950=DIRECTION('ref_axis',(-1.,0.,0.));
#951=DIRECTION('center_axis',(0.,0.,1.));
#952=DIRECTION('ref_axis',(-1.,0.,0.));
#953=DIRECTION('center_axis',(0.,0.,-1.));
#954=DIRECTION('ref_axis',(-1.,0.,0.));
#955=DIRECTION('',(0.,0.,-1.));
#956=DIRECTION('center_axis',(0.,0.,-1.));
#957=DIRECTION('ref_axis',(-1.,0.,0.));
#958=DIRECTION('center_axis',(0.,0.,1.));
#959=DIRECTION('ref_axis',(-1.,0.,0.));
#960=DIRECTION('center_axis',(0.,0.,-1.));
#961=DIRECTION('ref_axis',(-1.,0.,0.));
#962=DIRECTION('',(0.,0.,-1.));
#963=DIRECTION('center_axis',(0.,0.,-1.));
#964=DIRECTION('ref_axis',(-1.,0.,0.));
#965=DIRECTION('center_axis',(0.,0.,1.));
#966=DIRECTION('ref_axis',(-0.520599315586981,0.853801120056871,0.));
#967=DIRECTION('center_axis',(0.,0.,1.));
#968=DIRECTION('ref_axis',(-0.520599315586981,0.853801120056871,0.));
#969=DIRECTION('',(0.,0.,1.));
#970=DIRECTION('center_axis',(0.,0.,1.));
#971=DIRECTION('ref_axis',(-0.520599315586981,0.853801120056871,0.));
#972=DIRECTION('',(0.,0.,1.));
#973=DIRECTION('center_axis',(0.,0.,1.));
#974=DIRECTION('ref_axis',(-0.00192000542884744,0.999998156787878,0.));
#975=DIRECTION('center_axis',(0.,0.,1.));
#976=DIRECTION('ref_axis',(-0.00192000542884744,0.999998156787878,0.));
#977=DIRECTION('center_axis',(0.,0.,1.));
#978=DIRECTION('ref_axis',(-0.00192000542884744,0.999998156787878,0.));
#979=DIRECTION('',(0.,0.,1.));
#980=DIRECTION('center_axis',(0.,0.,1.));
#981=DIRECTION('ref_axis',(0.603973877675677,0.797004112339081,0.));
#982=DIRECTION('center_axis',(0.,0.,1.));
#983=DIRECTION('ref_axis',(0.603973877675677,0.797004112339081,0.));
#984=DIRECTION('center_axis',(0.,0.,1.));
#985=DIRECTION('ref_axis',(0.603973877675677,0.797004112339081,0.));
#986=DIRECTION('',(0.,0.,1.));
#987=DIRECTION('center_axis',(0.603973877675661,0.797004112339093,0.));
#988=DIRECTION('ref_axis',(-0.797004112339093,0.603973877675661,0.));
#989=DIRECTION('',(-0.797004112339093,0.603973877675661,0.));
#990=DIRECTION('',(-0.797004112339093,0.603973877675661,0.));
#991=DIRECTION('',(0.,0.,1.));
#992=DIRECTION('center_axis',(0.,0.,1.));
#993=DIRECTION('ref_axis',(0.696887593417624,0.717180369321827,0.));
#994=DIRECTION('center_axis',(0.,0.,1.));
#995=DIRECTION('ref_axis',(0.696887593417624,0.717180369321827,0.));
#996=DIRECTION('center_axis',(0.,0.,1.));
#997=DIRECTION('ref_axis',(0.696887593417624,0.717180369321827,0.));
#998=DIRECTION('',(0.,0.,1.));
#999=DIRECTION('center_axis',(0.,0.,1.));
#1000=DIRECTION('ref_axis',(-0.68173659893006,-0.731597710274762,0.));
#1001=DIRECTION('center_axis',(0.,0.,-1.));
#1002=DIRECTION('ref_axis',(-0.68173659893006,-0.731597710274762,0.));
#1003=DIRECTION('center_axis',(0.,0.,-1.));
#1004=DIRECTION('ref_axis',(-0.68173659893006,-0.731597710274762,0.));
#1005=DIRECTION('',(0.,0.,1.));
#1006=DIRECTION('center_axis',(0.642787609686538,0.766044443118979,0.));
#1007=DIRECTION('ref_axis',(-0.766044443118979,0.642787609686538,0.));
#1008=DIRECTION('',(-0.766044443118979,0.642787609686538,0.));
#1009=DIRECTION('',(-0.766044443118979,0.642787609686538,0.));
#1010=DIRECTION('',(0.,0.,1.));
#1011=DIRECTION('center_axis',(0.,0.,1.));
#1012=DIRECTION('ref_axis',(-0.00388144853821081,-0.999992467150251,0.));
#1013=DIRECTION('center_axis',(0.,0.,-1.));
#1014=DIRECTION('ref_axis',(-0.00388144853821081,-0.999992467150251,0.));
#1015=DIRECTION('center_axis',(0.,0.,-1.));
#1016=DIRECTION('ref_axis',(-0.00388144853821081,-0.999992467150251,0.));
#1017=DIRECTION('',(0.,0.,1.));
#1018=DIRECTION('center_axis',(0.,0.,1.));
#1019=DIRECTION('ref_axis',(0.303139267933589,-0.952946265136019,0.));
#1020=DIRECTION('center_axis',(0.,0.,-1.));
#1021=DIRECTION('ref_axis',(0.303139267933589,-0.952946265136019,0.));
#1022=DIRECTION('center_axis',(0.,0.,-1.));
#1023=DIRECTION('ref_axis',(0.303139267933589,-0.952946265136019,0.));
#1024=DIRECTION('',(0.,0.,1.));
#1025=DIRECTION('center_axis',(0.,0.,1.));
#1026=DIRECTION('ref_axis',(0.979157374480998,0.203103018193919,0.));
#1027=DIRECTION('center_axis',(0.,0.,1.));
#1028=DIRECTION('ref_axis',(0.979157374480998,0.203103018193919,0.));
#1029=DIRECTION('center_axis',(0.,0.,1.));
#1030=DIRECTION('ref_axis',(0.979157374480998,0.203103018193919,0.));
#1031=DIRECTION('',(0.,0.,1.));
#1032=DIRECTION('center_axis',(0.,0.,1.));
#1033=DIRECTION('ref_axis',(-0.164660489475946,-0.986350304509276,0.));
#1034=DIRECTION('center_axis',(0.,0.,-1.));
#1035=DIRECTION('ref_axis',(-0.164660489475946,-0.986350304509276,0.));
#1036=DIRECTION('center_axis',(0.,0.,-1.));
#1037=DIRECTION('ref_axis',(-0.164660489475946,-0.986350304509276,0.));
#1038=DIRECTION('',(0.,0.,1.));
#1039=DIRECTION('center_axis',(0.164660489475929,0.986350304509279,0.));
#1040=DIRECTION('ref_axis',(-0.986350304509279,0.164660489475929,0.));
#1041=DIRECTION('',(-0.986350304509279,0.164660489475929,0.));
#1042=DIRECTION('',(-0.986350304509279,0.164660489475929,0.));
#1043=DIRECTION('',(0.,0.,1.));
#1044=DIRECTION('center_axis',(0.,0.,1.));
#1045=DIRECTION('ref_axis',(0.333436859569931,-0.942772433135453,0.));
#1046=DIRECTION('center_axis',(0.,0.,1.));
#1047=DIRECTION('ref_axis',(0.333436859569931,-0.942772433135453,0.));
#1048=DIRECTION('center_axis',(0.,0.,1.));
#1049=DIRECTION('ref_axis',(0.333436859569931,-0.942772433135453,0.));
#1050=DIRECTION('',(0.,0.,1.));
#1051=DIRECTION('center_axis',(0.333436859569928,-0.942772433135454,0.));
#1052=DIRECTION('ref_axis',(0.942772433135454,0.333436859569928,0.));
#1053=DIRECTION('',(0.942772433135454,0.333436859569928,0.));
#1054=DIRECTION('',(0.942772433135454,0.333436859569928,0.));
#1055=DIRECTION('',(0.,0.,1.));
#1056=DIRECTION('center_axis',(0.,0.,1.));
#1057=DIRECTION('ref_axis',(-0.986350304509279,0.164660489475929,0.));
#1058=DIRECTION('center_axis',(0.,0.,-1.));
#1059=DIRECTION('ref_axis',(-0.986350304509279,0.164660489475929,0.));
#1060=DIRECTION('center_axis',(0.,0.,-1.));
#1061=DIRECTION('ref_axis',(-0.986350304509279,0.164660489475929,0.));
#1062=DIRECTION('',(0.,0.,1.));
#1063=DIRECTION('center_axis',(0.98635030450928,-0.164660489475925,0.));
#1064=DIRECTION('ref_axis',(0.164660489475925,0.98635030450928,0.));
#1065=DIRECTION('',(0.164660489475925,0.98635030450928,0.));
#1066=DIRECTION('',(0.164660489475925,0.98635030450928,0.));
#1067=DIRECTION('',(0.,0.,1.));
#1068=DIRECTION('center_axis',(0.,0.,1.));
#1069=DIRECTION('ref_axis',(-0.942772433135451,-0.333436859569938,0.));
#1070=DIRECTION('center_axis',(0.,0.,1.));
#1071=DIRECTION('ref_axis',(-0.942772433135451,-0.333436859569938,0.));
#1072=DIRECTION('center_axis',(0.,0.,1.));
#1073=DIRECTION('ref_axis',(-0.942772433135451,-0.333436859569938,0.));
#1074=DIRECTION('',(0.,0.,1.));
#1075=DIRECTION('center_axis',(-0.942772433135453,-0.333436859569931,0.));
#1076=DIRECTION('ref_axis',(0.333436859569931,-0.942772433135453,0.));
#1077=DIRECTION('',(0.333436859569931,-0.942772433135453,0.));
#1078=DIRECTION('',(0.333436859569931,-0.942772433135453,0.));
#1079=DIRECTION('',(0.,0.,1.));
#1080=DIRECTION('center_axis',(0.,0.,1.));
#1081=DIRECTION('ref_axis',(0.0299885332498137,0.999550242795991,0.));
#1082=DIRECTION('center_axis',(0.,0.,-1.));
#1083=DIRECTION('ref_axis',(0.0299885332498137,0.999550242795991,0.));
#1084=DIRECTION('center_axis',(0.,0.,-1.));
#1085=DIRECTION('ref_axis',(0.0299885332498137,0.999550242795991,0.));
#1086=DIRECTION('',(0.,0.,1.));
#1087=DIRECTION('center_axis',(0.,0.,1.));
#1088=DIRECTION('ref_axis',(-0.991108451565935,0.133056518948058,0.));
#1089=DIRECTION('center_axis',(0.,0.,1.));
#1090=DIRECTION('ref_axis',(-0.991108451565935,0.133056518948058,0.));
#1091=DIRECTION('center_axis',(0.,0.,1.));
#1092=DIRECTION('ref_axis',(-0.991108451565935,0.133056518948058,0.));
#1093=DIRECTION('',(0.,0.,1.));
#1094=DIRECTION('center_axis',(0.,0.,1.));
#1095=DIRECTION('ref_axis',(0.984126328138007,0.177469350214632,0.));
#1096=DIRECTION('center_axis',(0.,0.,-1.));
#1097=DIRECTION('ref_axis',(0.984126328138007,0.177469350214632,0.));
#1098=DIRECTION('center_axis',(0.,0.,-1.));
#1099=DIRECTION('ref_axis',(0.984126328138007,0.177469350214632,0.));
#1100=DIRECTION('',(0.,0.,1.));
#1101=DIRECTION('center_axis',(0.,0.,1.));
#1102=DIRECTION('ref_axis',(0.642787609686538,0.766044443118979,0.));
#1103=DIRECTION('center_axis',(0.,0.,-1.));
#1104=DIRECTION('ref_axis',(0.642787609686538,0.766044443118979,0.));
#1105=DIRECTION('center_axis',(0.,0.,-1.));
#1106=DIRECTION('ref_axis',(0.642787609686538,0.766044443118979,0.));
#1107=DIRECTION('',(0.,0.,1.));
#1108=DIRECTION('center_axis',(-0.642787609686536,-0.766044443118981,0.));
#1109=DIRECTION('ref_axis',(0.766044443118981,-0.642787609686536,0.));
#1110=DIRECTION('',(0.766044443118981,-0.642787609686536,0.));
#1111=DIRECTION('',(0.766044443118981,-0.642787609686536,0.));
#1112=DIRECTION('',(0.,0.,1.));
#1113=DIRECTION('center_axis',(0.,0.,1.));
#1114=DIRECTION('ref_axis',(0.585271527380612,0.810837369166941,0.));
#1115=DIRECTION('center_axis',(0.,0.,-1.));
#1116=DIRECTION('ref_axis',(0.585271527380612,0.810837369166941,0.));
#1117=DIRECTION('center_axis',(0.,0.,-1.));
#1118=DIRECTION('ref_axis',(0.585271527380612,0.810837369166941,0.));
#1119=DIRECTION('',(0.,0.,1.));
#1120=DIRECTION('center_axis',(0.,0.,1.));
#1121=DIRECTION('ref_axis',(-0.712444840957501,-0.701728115863289,0.));
#1122=DIRECTION('center_axis',(0.,0.,1.));
#1123=DIRECTION('ref_axis',(-0.712444840957501,-0.701728115863289,0.));
#1124=DIRECTION('center_axis',(0.,0.,1.));
#1125=DIRECTION('ref_axis',(-0.712444840957501,-0.701728115863289,0.));
#1126=DIRECTION('',(0.,0.,1.));
#1127=DIRECTION('center_axis',(0.,0.,1.));
#1128=DIRECTION('ref_axis',(0.496254898239075,0.868176869061671,0.));
#1129=DIRECTION('center_axis',(0.,0.,-1.));
#1130=DIRECTION('ref_axis',(0.496254898239075,0.868176869061671,0.));
#1131=DIRECTION('center_axis',(0.,0.,-1.));
#1132=DIRECTION('ref_axis',(0.496254898239075,0.868176869061671,0.));
#1133=DIRECTION('',(0.,0.,1.));
#1134=DIRECTION('center_axis',(-0.680016865797451,-0.733196469052471,0.));
#1135=DIRECTION('ref_axis',(0.733196469052471,-0.680016865797451,0.));
#1136=DIRECTION('',(0.733196469052471,-0.680016865797451,0.));
#1137=DIRECTION('',(0.733196469052471,-0.680016865797451,0.));
#1138=DIRECTION('',(0.,0.,1.));
#1139=DIRECTION('center_axis',(0.,0.,1.));
#1140=DIRECTION('ref_axis',(-0.985139220454445,-0.171757725655667,0.));
#1141=DIRECTION('center_axis',(0.,0.,1.));
#1142=DIRECTION('ref_axis',(-0.985139220454445,-0.171757725655667,0.));
#1143=DIRECTION('center_axis',(0.,0.,1.));
#1144=DIRECTION('ref_axis',(-0.985139220454445,-0.171757725655667,0.));
#1145=DIRECTION('',(0.,0.,1.));
#1146=DIRECTION('center_axis',(0.,0.,1.));
#1147=DIRECTION('ref_axis',(-0.931231085804096,0.364429231582929,0.));
#1148=DIRECTION('center_axis',(0.,0.,1.));
#1149=DIRECTION('ref_axis',(-0.931231085804096,0.364429231582929,0.));
#1150=DIRECTION('center_axis',(0.,0.,1.));
#1151=DIRECTION('ref_axis',(-0.931231085804096,0.364429231582929,0.));
#1152=DIRECTION('',(0.,0.,1.));
#1153=DIRECTION('center_axis',(0.,0.,1.));
#1154=DIRECTION('ref_axis',(0.642787609686536,0.766044443118981,0.));
#1155=DIRECTION('center_axis',(0.,0.,1.));
#1156=DIRECTION('ref_axis',(0.642787609686536,0.766044443118981,0.));
#1157=DIRECTION('center_axis',(0.,0.,1.));
#1158=DIRECTION('ref_axis',(0.642787609686536,0.766044443118981,0.));
#1159=DIRECTION('',(0.,0.,1.));
#1160=DIRECTION('center_axis',(0.64278760968654,0.766044443118978,0.));
#1161=DIRECTION('ref_axis',(-0.766044443118978,0.64278760968654,0.));
#1162=DIRECTION('',(-0.766044443118978,0.642787609686539,0.));
#1163=DIRECTION('',(-0.766044443118978,0.642787609686539,0.));
#1164=DIRECTION('',(0.,0.,1.));
#1165=DIRECTION('center_axis',(0.,0.,1.));
#1166=DIRECTION('ref_axis',(0.766044447908118,-0.642787603979064,0.));
#1167=DIRECTION('center_axis',(0.,0.,-1.));
#1168=DIRECTION('ref_axis',(0.642787598271588,0.766044452697259,0.));
#1169=DIRECTION('center_axis',(0.,0.,-1.));
#1170=DIRECTION('ref_axis',(0.642787598271588,0.766044452697259,0.));
#1171=DIRECTION('',(0.,0.,1.));
#1172=DIRECTION('center_axis',(-0.642787609686539,-0.766044443118978,0.));
#1173=DIRECTION('ref_axis',(0.766044443118978,-0.642787609686539,0.));
#1174=DIRECTION('',(0.766044443118978,-0.642787609686539,0.));
#1175=DIRECTION('',(0.766044443118978,-0.642787609686539,0.));
#1176=DIRECTION('center_axis',(0.,0.,1.));
#1177=DIRECTION('ref_axis',(1.,0.,0.));
#1178=DIRECTION('center_axis',(0.,0.,1.));
#1179=DIRECTION('ref_axis',(1.,0.,0.));
#1180=CARTESIAN_POINT('',(0.,0.,0.));
#1181=CARTESIAN_POINT('Origin',(76.2829995180095,-83.5553113246754,0.));
#1182=CARTESIAN_POINT('',(77.7829995180095,-83.5553113246754,6.));
#1183=CARTESIAN_POINT('Origin',(76.2829995180095,-83.5553113246754,6.));
#1184=CARTESIAN_POINT('',(77.7829995180095,-83.5553113246754,0.));
#1185=CARTESIAN_POINT('',(77.7829995180095,-83.5553113246754,0.));
#1186=CARTESIAN_POINT('Origin',(76.2829995180095,-83.5553113246754,0.));
#1187=CARTESIAN_POINT('Origin',(20.7836553813923,-29.6013333570809,0.));
#1188=CARTESIAN_POINT('',(22.2836553813923,-29.6013333570809,6.));
#1189=CARTESIAN_POINT('Origin',(20.7836553813923,-29.6013333570809,6.));
#1190=CARTESIAN_POINT('',(22.2836553813923,-29.6013333570809,0.));
#1191=CARTESIAN_POINT('',(22.2836553813923,-29.6013333570809,0.));
#1192=CARTESIAN_POINT('Origin',(20.7836553813923,-29.6013333570809,0.));
#1193=CARTESIAN_POINT('Origin',(83.5553111607622,-74.8885077979602,0.));
#1194=CARTESIAN_POINT('',(85.0553111607622,-74.8885077979602,6.));
#1195=CARTESIAN_POINT('Origin',(83.5553111607622,-74.8885077979602,6.));
#1196=CARTESIAN_POINT('',(85.0553111607622,-74.8885077979602,0.));
#1197=CARTESIAN_POINT('',(85.0553111607622,-74.8885077979602,0.));
#1198=CARTESIAN_POINT('Origin',(83.5553111607622,-74.8885077979602,0.));
#1199=CARTESIAN_POINT('Origin',(74.8885076340471,-67.6161961552074,0.));
#1200=CARTESIAN_POINT('',(76.3885076340471,-67.6161961552074,6.));
#1201=CARTESIAN_POINT('Origin',(74.8885076340471,-67.6161961552074,6.));
#1202=CARTESIAN_POINT('',(76.3885076340471,-67.6161961552074,0.));
#1203=CARTESIAN_POINT('',(76.3885076340471,-67.6161961552074,0.));
#1204=CARTESIAN_POINT('Origin',(74.8885076340471,-67.6161961552074,0.));
#1205=CARTESIAN_POINT('Origin',(67.6161959912943,-76.2829996819226,0.));
#1206=CARTESIAN_POINT('',(69.1161959912943,-76.2829996819226,6.));
#1207=CARTESIAN_POINT('Origin',(67.6161959912943,-76.2829996819226,6.));
#1208=CARTESIAN_POINT('',(69.1161959912943,-76.2829996819226,0.));
#1209=CARTESIAN_POINT('',(69.1161959912943,-76.2829996819226,0.));
#1210=CARTESIAN_POINT('Origin',(67.6161959912943,-76.2829996819226,0.));
#1211=CARTESIAN_POINT('Origin',(75.5857535760283,-75.5857537399414,0.));
#1212=CARTESIAN_POINT('',(79.0857535760283,-75.5857537399414,6.));
#1213=CARTESIAN_POINT('Origin',(75.5857535760283,-75.5857537399414,6.));
#1214=CARTESIAN_POINT('',(79.0857535760283,-75.5857537399414,0.));
#1215=CARTESIAN_POINT('',(79.0857535760283,-75.5857537399414,0.));
#1216=CARTESIAN_POINT('Origin',(75.5857535760283,-75.5857537399414,0.));
#1217=CARTESIAN_POINT('Origin',(14.1103637971759,-20.7382586266962,0.));
#1218=CARTESIAN_POINT('',(13.5897644815891,-19.8844575066396,0.));
#1219=CARTESIAN_POINT('',(13.4675761874894,-21.5043030698148,0.));
#1220=CARTESIAN_POINT('Origin',(14.1103637971759,-20.7382586266962,0.));
#1221=CARTESIAN_POINT('',(13.4675761874894,-21.5043030698148,6.));
#1222=CARTESIAN_POINT('',(13.4675761874894,-21.5043030698148,0.));
#1223=CARTESIAN_POINT('',(13.5897644815891,-19.8844575066396,6.));
#1224=CARTESIAN_POINT('Origin',(14.1103637971759,-20.7382586266962,6.));
#1225=CARTESIAN_POINT('',(13.5897644815891,-19.8844575066396,0.));
#1226=CARTESIAN_POINT('Origin',(15.9993638518521,-23.8362849242046,0.));
#1227=CARTESIAN_POINT('',(15.9904770866445,-19.207782997145,0.));
#1228=CARTESIAN_POINT('Origin',(15.9993638518521,-23.8362849242046,0.));
#1229=CARTESIAN_POINT('',(15.9904770866445,-19.207782997145,6.));
#1230=CARTESIAN_POINT('Origin',(15.9993638518521,-23.8362849242046,6.));
#1231=CARTESIAN_POINT('',(15.9904770866445,-19.207782997145,0.));
#1232=CARTESIAN_POINT('Origin',(15.9962382634671,-22.2077774652802,0.));
#1233=CARTESIAN_POINT('',(17.8081598964941,-19.8167651282629,0.));
#1234=CARTESIAN_POINT('Origin',(15.9962382634671,-22.2077774652802,0.));
#1235=CARTESIAN_POINT('',(17.8081598964941,-19.8167651282629,6.));
#1236=CARTESIAN_POINT('Origin',(15.9962382634671,-22.2077774652802,6.));
#1237=CARTESIAN_POINT('',(17.8081598964941,-19.8167651282629,0.));
#1238=CARTESIAN_POINT('Origin',(24.0712537971661,-24.562970387272,0.));
#1239=CARTESIAN_POINT('',(24.0712537971661,-24.5629703872721,0.));
#1240=CARTESIAN_POINT('',(24.0712537971661,-24.562970387272,0.));
#1241=CARTESIAN_POINT('',(24.0712537971661,-24.5629703872721,6.));
#1242=CARTESIAN_POINT('',(24.0712537971661,-24.562970387272,6.));
#1243=CARTESIAN_POINT('',(24.0712537971661,-24.5629703872721,0.));
#1244=CARTESIAN_POINT('Origin',(21.0513844087877,-28.5479909489677,0.));
#1245=CARTESIAN_POINT('',(24.535822375876,-24.9620891023584,0.));
#1246=CARTESIAN_POINT('Origin',(21.0513844087877,-28.5479909489677,0.));
#1247=CARTESIAN_POINT('',(24.5358223758759,-24.9620891023584,6.));
#1248=CARTESIAN_POINT('Origin',(21.0513844087877,-28.5479909489677,6.));
#1249=CARTESIAN_POINT('',(24.535822375876,-24.9620891023584,0.));
#1250=CARTESIAN_POINT('Origin',(540.061264510812,505.575016848887,0.));
#1251=CARTESIAN_POINT('',(35.7438323989687,-35.6273759282151,0.));
#1252=CARTESIAN_POINT('Origin',(540.061264510812,505.575016848887,0.));
#1253=CARTESIAN_POINT('',(35.7438323989687,-35.6273759282151,6.));
#1254=CARTESIAN_POINT('Origin',(540.061264510812,505.575016848887,6.));
#1255=CARTESIAN_POINT('',(35.7438323989687,-35.6273759282151,0.));
#1256=CARTESIAN_POINT('Origin',(67.3167608798707,-62.1202085717265,0.));
#1257=CARTESIAN_POINT('',(67.3167608798707,-62.1202085717265,0.));
#1258=CARTESIAN_POINT('',(67.3167608798707,-62.1202085717265,0.));
#1259=CARTESIAN_POINT('',(67.3167608798707,-62.1202085717265,6.));
#1260=CARTESIAN_POINT('',(67.3167608798707,-62.1202085717265,6.));
#1261=CARTESIAN_POINT('',(67.3167608798707,-62.1202085717265,0.));
#1262=CARTESIAN_POINT('Origin',(70.5306989283035,-58.2899863561316,0.));
#1263=CARTESIAN_POINT('',(70.5112916856124,-63.2899486918829,0.));
#1264=CARTESIAN_POINT('Origin',(70.5306989283035,-58.2899863561316,0.));
#1265=CARTESIAN_POINT('',(70.5112916856124,-63.2899486918829,6.));
#1266=CARTESIAN_POINT('Origin',(70.5306989283035,-58.2899863561316,6.));
#1267=CARTESIAN_POINT('',(70.5112916856124,-63.2899486918829,0.));
#1268=CARTESIAN_POINT('Origin',(70.5474678799427,-53.9697370584365,0.));
#1269=CARTESIAN_POINT('',(73.3728112943792,-62.8514648295273,0.));
#1270=CARTESIAN_POINT('Origin',(70.5474678799427,-53.9697370584365,0.));
#1271=CARTESIAN_POINT('',(73.3728112943792,-62.8514648295273,6.));
#1272=CARTESIAN_POINT('Origin',(70.5474678799427,-53.9697370584365,6.));
#1273=CARTESIAN_POINT('',(73.3728112943792,-62.8514648295273,0.));
#1274=CARTESIAN_POINT('Origin',(74.8885076340471,-67.6161961552074,0.));
#1275=CARTESIAN_POINT('',(79.7842945064521,-66.6006810642378,0.));
#1276=CARTESIAN_POINT('Origin',(74.8885076340471,-67.6161961552074,0.));
#1277=CARTESIAN_POINT('',(79.7842945064521,-66.6006810642378,6.));
#1278=CARTESIAN_POINT('Origin',(74.8885076340471,-67.6161961552074,6.));
#1279=CARTESIAN_POINT('',(79.7842945064521,-66.6006810642378,0.));
#1280=CARTESIAN_POINT('Origin',(83.7009240043761,-65.7882689914621,0.));
#1281=CARTESIAN_POINT('',(83.0422820464723,-69.7336702094992,0.));
#1282=CARTESIAN_POINT('Origin',(83.7009240043761,-65.7882689914621,0.));
#1283=CARTESIAN_POINT('',(83.0422820464723,-69.7336702094992,6.));
#1284=CARTESIAN_POINT('Origin',(83.7009240043761,-65.7882689914621,6.));
#1285=CARTESIAN_POINT('',(83.0422820464723,-69.7336702094992,0.));
#1286=CARTESIAN_POINT('Origin',(92.018850213924,-71.2322109424511,0.));
#1287=CARTESIAN_POINT('',(92.018850213924,-71.2322109424511,0.));
#1288=CARTESIAN_POINT('',(92.018850213924,-71.2322109424511,0.));
#1289=CARTESIAN_POINT('',(92.018850213924,-71.2322109424511,6.));
#1290=CARTESIAN_POINT('',(92.018850213924,-71.2322109424511,6.));
#1291=CARTESIAN_POINT('',(92.018850213924,-71.2322109424511,0.));
#1292=CARTESIAN_POINT('Origin',(91.5248687454962,-74.191261855979,0.));
#1293=CARTESIAN_POINT('',(92.5251793242061,-77.0195791553854,0.));
#1294=CARTESIAN_POINT('Origin',(91.5248687454962,-74.191261855979,0.));
#1295=CARTESIAN_POINT('',(92.5251793242061,-77.0195791553854,6.));
#1296=CARTESIAN_POINT('Origin',(91.5248687454962,-74.191261855979,6.));
#1297=CARTESIAN_POINT('',(92.5251793242061,-77.0195791553854,0.));
#1298=CARTESIAN_POINT('Origin',(84.5898187912234,-79.8261331048608,0.));
#1299=CARTESIAN_POINT('',(84.5898187912234,-79.8261331048608,0.));
#1300=CARTESIAN_POINT('',(84.5898187912234,-79.8261331048608,0.));
#1301=CARTESIAN_POINT('',(84.5898187912234,-79.8261331048608,6.));
#1302=CARTESIAN_POINT('',(84.5898187912234,-79.8261331048608,6.));
#1303=CARTESIAN_POINT('',(84.5898187912234,-79.8261331048608,0.));
#1304=CARTESIAN_POINT('Origin',(86.257003089073,-84.5399952705381,0.));
#1305=CARTESIAN_POINT('',(81.3252515665267,-83.7166928231584,0.));
#1306=CARTESIAN_POINT('Origin',(86.257003089073,-84.5399952705381,0.));
#1307=CARTESIAN_POINT('',(81.3252515665267,-83.7166928231584,6.));
#1308=CARTESIAN_POINT('Origin',(86.257003089073,-84.5399952705381,6.));
#1309=CARTESIAN_POINT('',(81.3252515665267,-83.7166928231584,0.));
#1310=CARTESIAN_POINT('Origin',(79.9392963735187,-92.0188503778371,0.));
#1311=CARTESIAN_POINT('',(79.9392963735187,-92.0188503778371,0.));
#1312=CARTESIAN_POINT('',(79.9392963735187,-92.0188503778371,0.));
#1313=CARTESIAN_POINT('',(79.9392963735187,-92.0188503778371,6.));
#1314=CARTESIAN_POINT('',(79.9392963735187,-92.0188503778371,6.));
#1315=CARTESIAN_POINT('',(79.9392963735187,-92.0188503778371,0.));
#1316=CARTESIAN_POINT('Origin',(76.9802454599908,-91.5248689094093,0.));
#1317=CARTESIAN_POINT('',(74.1519281605844,-92.5251794881192,0.));
#1318=CARTESIAN_POINT('Origin',(76.9802454599908,-91.5248689094093,0.));
#1319=CARTESIAN_POINT('',(74.1519281605844,-92.5251794881192,6.));
#1320=CARTESIAN_POINT('Origin',(76.9802454599908,-91.5248689094093,6.));
#1321=CARTESIAN_POINT('',(74.1519281605844,-92.5251794881192,0.));
#1322=CARTESIAN_POINT('Origin',(71.1173889245879,-83.9452044288068,0.));
#1323=CARTESIAN_POINT('',(71.1173889245879,-83.9452044288068,0.));
#1324=CARTESIAN_POINT('',(71.1173889245879,-83.9452044288068,0.));
#1325=CARTESIAN_POINT('',(71.1173889245879,-83.9452044288068,6.));
#1326=CARTESIAN_POINT('',(71.1173889245879,-83.9452044288068,6.));
#1327=CARTESIAN_POINT('',(71.1173889245879,-83.9452044288068,0.));
#1328=CARTESIAN_POINT('Origin',(67.3462991920461,-85.2789518670865,0.));
#1329=CARTESIAN_POINT('',(67.4662533250453,-81.2807508959025,0.));
#1330=CARTESIAN_POINT('Origin',(67.3462991920461,-85.2789518670865,0.));
#1331=CARTESIAN_POINT('',(67.4662533250453,-81.2807508959025,6.));
#1332=CARTESIAN_POINT('Origin',(67.3462991920461,-85.2789518670865,6.));
#1333=CARTESIAN_POINT('',(67.4662533250453,-81.2807508959025,0.));
#1334=CARTESIAN_POINT('Origin',(67.6161959912943,-76.2829996819226,0.));
#1335=CARTESIAN_POINT('',(62.6606537334647,-75.6177170871823,0.));
#1336=CARTESIAN_POINT('Origin',(67.6161959912943,-76.2829996819226,0.));
#1337=CARTESIAN_POINT('',(62.6606537334647,-75.6177170871823,6.));
#1338=CARTESIAN_POINT('Origin',(67.6161959912943,-76.2829996819226,6.));
#1339=CARTESIAN_POINT('',(62.6606537334647,-75.6177170871823,0.));
#1340=CARTESIAN_POINT('Origin',(53.4232436291502,-74.3775928297069,0.));
#1341=CARTESIAN_POINT('',(62.5955783752627,-72.723528467438,0.));
#1342=CARTESIAN_POINT('Origin',(53.4232436291502,-74.3775928297069,0.));
#1343=CARTESIAN_POINT('',(62.5955783752627,-72.723528467438,6.));
#1344=CARTESIAN_POINT('Origin',(53.4232436291502,-74.3775928297069,6.));
#1345=CARTESIAN_POINT('',(62.5955783752627,-72.723528467438,0.));
#1346=CARTESIAN_POINT('Origin',(57.6749467345726,-73.6108752185112,0.));
#1347=CARTESIAN_POINT('',(60.8888847830053,-69.7806530029163,0.));
#1348=CARTESIAN_POINT('Origin',(57.6749467345726,-73.6108752185112,0.));
#1349=CARTESIAN_POINT('',(60.8888847830053,-69.7806530029163,6.));
#1350=CARTESIAN_POINT('Origin',(57.6749467345726,-73.6108752185112,6.));
#1351=CARTESIAN_POINT('',(60.8888847830053,-69.7806530029163,0.));
#1352=CARTESIAN_POINT('Origin',(29.315956302098,-43.2878203594006,0.));
#1353=CARTESIAN_POINT('',(29.3159563020982,-43.2878203594003,0.));
#1354=CARTESIAN_POINT('',(29.3159563020937,-43.287820359397,0.));
#1355=CARTESIAN_POINT('',(29.3159563020982,-43.2878203594003,6.));
#1356=CARTESIAN_POINT('',(29.3159563020937,-43.287820359397,6.));
#1357=CARTESIAN_POINT('',(29.3159563020982,-43.2878203594003,0.));
#1358=CARTESIAN_POINT('Origin',(-416.090553001143,-633.922346736367,0.));
#1359=CARTESIAN_POINT('',(16.8664486321169,-34.102092814428,0.));
#1360=CARTESIAN_POINT('Origin',(-416.090553001143,-633.922346736367,0.));
#1361=CARTESIAN_POINT('',(16.8664486321169,-34.102092814428,6.));
#1362=CARTESIAN_POINT('Origin',(-416.090553001143,-633.922346736367,6.));
#1363=CARTESIAN_POINT('',(16.8664486321169,-34.102092814428,0.));
#1364=CARTESIAN_POINT('Origin',(19.792806269006,-30.047905968611,0.));
#1365=CARTESIAN_POINT('',(16.2305820642345,-33.5565465479116,0.));
#1366=CARTESIAN_POINT('Origin',(19.792806269006,-30.047905968611,0.));
#1367=CARTESIAN_POINT('',(16.2305820642345,-33.5565465479116,6.));
#1368=CARTESIAN_POINT('Origin',(19.792806269006,-30.047905968611,6.));
#1369=CARTESIAN_POINT('',(16.2305820642345,-33.5565465479116,0.));
#1370=CARTESIAN_POINT('Origin',(1.32334370435261,-59.5906442347746,0.));
#1371=CARTESIAN_POINT('',(16.2109906340522,-33.5453381934921,0.));
#1372=CARTESIAN_POINT('Origin',(1.32334370435261,-59.5906442347746,0.));
#1373=CARTESIAN_POINT('',(16.2109906340522,-33.5453381934921,6.));
#1374=CARTESIAN_POINT('Origin',(1.32334370435261,-59.5906442347746,6.));
#1375=CARTESIAN_POINT('',(16.2109906340522,-33.5453381934921,0.));
#1376=CARTESIAN_POINT('Origin',(10.6310473611666,-28.3701147766924,0.));
#1377=CARTESIAN_POINT('',(10.6310473611666,-28.3701147766924,0.));
#1378=CARTESIAN_POINT('',(10.6310473611666,-28.3701147766924,0.));
#1379=CARTESIAN_POINT('',(10.6310473611666,-28.3701147766924,6.));
#1380=CARTESIAN_POINT('',(10.6310473611666,-28.3701147766924,6.));
#1381=CARTESIAN_POINT('',(10.6310473611666,-28.3701147766924,0.));
#1382=CARTESIAN_POINT('Origin',(12.6710979585586,-26.1705253695346,0.));
#1383=CARTESIAN_POINT('',(9.71568029719528,-26.6857985465016,0.));
#1384=CARTESIAN_POINT('Origin',(12.6710979585586,-26.1705253695346,0.));
#1385=CARTESIAN_POINT('',(9.71568029719528,-26.6857985465016,6.));
#1386=CARTESIAN_POINT('Origin',(12.6710979585586,-26.1705253695346,6.));
#1387=CARTESIAN_POINT('',(9.71568029719528,-26.6857985465016,0.));
#1388=CARTESIAN_POINT('Origin',(14.2754074826728,-25.8908161206497,0.));
#1389=CARTESIAN_POINT('',(9.96519466285363,-24.2040516109262,0.));
#1390=CARTESIAN_POINT('Origin',(14.2754074826728,-25.8908161206497,0.));
#1391=CARTESIAN_POINT('',(9.96519466285363,-24.2040516109262,6.));
#1392=CARTESIAN_POINT('Origin',(14.2754074826728,-25.8908161206497,6.));
#1393=CARTESIAN_POINT('',(9.96519466285363,-24.2040516109262,0.));
#1394=CARTESIAN_POINT('Origin',(10.8964257487432,-24.5684808422907,0.));
#1395=CARTESIAN_POINT('',(11.5392133584297,-23.8024363991717,0.));
#1396=CARTESIAN_POINT('Origin',(10.8964257487432,-24.5684808422907,0.));
#1397=CARTESIAN_POINT('',(11.5392133584297,-23.8024363991717,6.));
#1398=CARTESIAN_POINT('Origin',(10.8964257487432,-24.5684808422907,6.));
#1399=CARTESIAN_POINT('',(11.5392133584297,-23.8024363991717,0.));
#1400=CARTESIAN_POINT('Origin',(12.5068584911963,-24.6143870731866,0.));
#1401=CARTESIAN_POINT('',(12.5068584911963,-24.6143870731866,0.));
#1402=CARTESIAN_POINT('',(12.5068584911963,-24.6143870731866,0.));
#1403=CARTESIAN_POINT('',(12.5068584911963,-24.6143870731866,6.));
#1404=CARTESIAN_POINT('',(12.5068584911963,-24.6143870731866,6.));
#1405=CARTESIAN_POINT('',(12.5068584911963,-24.6143870731866,0.));
#1406=CARTESIAN_POINT('Origin',(13.4710399057261,-23.4653204085081,0.));
#1407=CARTESIAN_POINT('',(14.4352213031335,-22.3162537294623,0.));
#1408=CARTESIAN_POINT('Origin',(13.4710399057261,-23.4653204085081,0.));
#1409=CARTESIAN_POINT('',(14.4352213031335,-22.3162537294623,6.));
#1410=CARTESIAN_POINT('Origin',(13.4710399057261,-23.4653204085081,6.));
#1411=CARTESIAN_POINT('',(14.4352213031335,-22.3162537294623,0.));
#1412=CARTESIAN_POINT('Origin',(13.4675761874894,-21.5043030698148,0.));
#1413=CARTESIAN_POINT('',(13.4675761874894,-21.5043030698148,0.));
#1414=CARTESIAN_POINT('',(13.4675761874894,-21.5043030698148,6.));
#1415=CARTESIAN_POINT('Origin',(52.0858828848911,-56.8663231873448,6.));
#1416=CARTESIAN_POINT('Origin',(52.0858828848911,-56.8663231873448,0.));
#1417=UNCERTAINTY_MEASURE_WITH_UNIT(LENGTH_MEASURE(0.01),#1421,
'DISTANCE_ACCURACY_VALUE',
'Maximum model space distance between geometric entities at asserted c
onnectivities');
#1418=UNCERTAINTY_MEASURE_WITH_UNIT(LENGTH_MEASURE(0.01),#1421,
'DISTANCE_ACCURACY_VALUE',
'Maximum model space distance between geometric entities at asserted c
onnectivities');
#1419=(
GEOMETRIC_REPRESENTATION_CONTEXT(3)
GLOBAL_UNCERTAINTY_ASSIGNED_CONTEXT((#1417))
GLOBAL_UNIT_ASSIGNED_CONTEXT((#1421,#1423,#1424))
REPRESENTATION_CONTEXT('','3D')
);
#1420=(
GEOMETRIC_REPRESENTATION_CONTEXT(3)
GLOBAL_UNCERTAINTY_ASSIGNED_CONTEXT((#1418))
GLOBAL_UNIT_ASSIGNED_CONTEXT((#1421,#1423,#1424))
REPRESENTATION_CONTEXT('','3D')
);
#1421=(
LENGTH_UNIT()
NAMED_UNIT(*)
SI_UNIT(.MILLI.,.METRE.)
);
#1422=(
LENGTH_UNIT()
NAMED_UNIT(*)
SI_UNIT($,.METRE.)
);
#1423=(
NAMED_UNIT(*)
PLANE_ANGLE_UNIT()
SI_UNIT($,.RADIAN.)
);
#1424=(
NAMED_UNIT(*)
SI_UNIT($,.STERADIAN.)
SOLID_ANGLE_UNIT()
);
#1425=SHAPE_DEFINITION_REPRESENTATION(#1426,#1427);
#1426=PRODUCT_DEFINITION_SHAPE('',$,#1429);
#1427=SHAPE_REPRESENTATION('',(#821),#1419);
#1428=PRODUCT_DEFINITION_CONTEXT('part definition',#1433,'design');
#1429=PRODUCT_DEFINITION('2026-07-24-23-32-48-207','(Unsaved)',#1430,#1428);
#1430=PRODUCT_DEFINITION_FORMATION('',$,#1435);
#1431=PRODUCT_RELATED_PRODUCT_CATEGORY('(Unsaved)','(Unsaved)',(#1435));
#1432=APPLICATION_PROTOCOL_DEFINITION('international standard',
'automotive_design',2009,#1433);
#1433=APPLICATION_CONTEXT(
'Core Data for Automotive Mechanical Design Process');
#1434=PRODUCT_CONTEXT('part definition',#1433,'mechanical');
#1435=PRODUCT('2026-07-24-23-32-48-207','(Unsaved)',$,(#1434));
#1436=PRESENTATION_STYLE_ASSIGNMENT((#1437));
#1437=SURFACE_STYLE_USAGE(.BOTH.,#1438);
#1438=SURFACE_SIDE_STYLE('',(#1439));
#1439=SURFACE_STYLE_FILL_AREA(#1440);
#1440=FILL_AREA_STYLE('Steel - Satin',(#1441));
#1441=FILL_AREA_STYLE_COLOUR('Steel - Satin',#1442);
#1442=COLOUR_RGB('Steel - Satin',0.627450980392157,0.627450980392157,0.627450980392157);
ENDSEC;
END-ISO-10303-21;
